<svg xmlns="http://www.w3.org/2000/svg" width="2781.3" height="1005.3" viewBox="0 0 2086 754"><path d="M864.5 39.7c-55.9 3.6-182.3 25.1-296.2 50.4L534 97.6a2393 2393 0 0 0-142 37c-96 28.9-171.3 63.2-211 96.3a279 279 0 0 0-23.2 22.8C147 266.4 139 283.3 139 293.3c0 12.8 8.2 23.5 21.5 28.1a64 64 0 0 0 26.1 1.7c5.3-1.4 7.4-4.9 5.1-8.4-1.3-2.1-2.7-2.5-8.8-3.1-20.5-2.1-28.6-12-22.6-28.1 4-10.9 19.3-27.7 38-41.9 20.8-15.8 56.1-35 92.7-50.6 49.4-21 118.4-43.5 184-60 9.1-2.2 18.7-4.8 21.3-5.7 7.1-2.2 7.8-.9 4 6.9l-7.8 16.3-8.5 18-6 13-5 11-5 11-6.6 14.3-4.4 9.7-4.9 10.6c-4.8 10.3-7.1 15.4-11.2 24.6-1.1 2.7-3.1 7-4.4 9.8l-3.8 8.5-3.6 8.2-4.2 9.5-3.4 7.8-5.4 11.8-4.1 9.2c0 .2-2.7 6.6-6.1 14.2l-7.4 16.8-3.4 7.7c-1.1 2.6-2.1 5-2.1 5.3s-.9 2.7-2.1 5.3l-4.8 11.4-3 7a25 25 0 0 0-2.1 6.1q-.1 1.2-.8 2.2c-.5.6-2.8 5.9-5.2 12s-4.7 11.4-5.2 11.9q-.7 1-.8 2.3c0 .7-.9 3.5-2.1 6.1A2008 2008 0 0 0 327 539.2c-.6 1-1 2.5-1 3.3s-.4 2.3-.9 3.3c-1.6 3.1-2.8 6.6-6.1 17.2l-5.2 16.5-2.8 9-2.5 9-2.5 9a531 531 0 0 0-12 53.3c-.6 4.5-1.1 14-1.1 21 0 25.2 7.1 40.4 20.1 43.3 9.8 2.2 19.8-5.1 14.4-10.5-.8-.9-2.8-1.6-4.3-1.6-4 0-7.7-3.3-9.8-8.8-3.8-10-1.5-37.6 5.4-64.2l3.3-13a259 259 0 0 1 4.2-15l2.8-9a1587 1587 0 0 1 39.4-114.5l21.6-55 2.3-5.5c.9-1.9 2.3-5.5 3.2-8 1.7-4.5 2.5-6.7 4.6-11.8l1.9-4.7 2.9-6.7c1.2-2.6 2.1-5 2.1-5.3l2.4-5.7a800 800 0 0 1 13.1-30.8c2.6-5.8 6-13.9 7.6-18a708 708 0 0 1 13.9-31.5l2.4-5.7 8.7-19.6 5.5-11.8 6.5-14 8.4-18.4 8.5-18.5 7.7-16.5 7-15 7.3-15.5 6.3-13.5 6.7-14.5 8-17.2c1.6-3.4 3.6-6.4 4.7-6.7l10.3-2.5 17.5-4.1 42-9.6a3208 3208 0 0 1 143.5-28c23.7-4.3 82.5-13.6 101-16 14.4-1.9 47.5-2.5 56.6-1 4.7.8 5.3.6 6.8-1.5a9 9 0 0 0 .6-8.8c-2.8-5.2-22-7.9-45.5-6.4"/><path d="M1419.4 136.9c-1.7 1-4.2 3.4-5.5 5.3l-3.2 4.3a705 705 0 0 0-18.6 29.5l-9.1 15c-2.7 4.1-6 9.7-7.5 12.5l-4.4 7.5c-.9 1.4-2.7 4.6-4 7.2a28 28 0 0 1-4 6.2 96 96 0 0 1-17.6 5.1c-24.4 5.5-70 18-92 25.4-3.3 1.1-12.7 4.1-21 6.6-23.6 7.4-39.1 13.4-41.9 16.2-3.6 3.6-3.6 9.6-.1 11.9 3 2 3 2 26.1-6.1a1473 1473 0 0 1 106.4-31.8c26.3-7.1 28-7.4 28-5.2 0 .9-.8 2.9-1.9 4.3l-6.1 10.7-7.5 14-17.3 33c-2.4 4.7-17.6 36.1-22 45.5l-12.9 28.5c-4.7 10.5-7.9 14.3-24.3 28.5l-8.2 7.2-6.1 5-7.7 6.3a401 401 0 0 1-67.6 46.7 45 45 0 0 1-18.5 6.5c-5.9.5-6.6.3-9-2.1-3.2-3.2-3.7-6.1-2.8-15.8a170 170 0 0 1 21.1-54.7c5.6-9 2.2-16.9-6.7-15.8-4.2.6-7.5 3.6-20.5 18.8-25.4 29.6-56.4 59.3-73.6 70.5-17.8 11.7-25 10.8-22.9-2.9 1.2-8 7.7-23.5 13.7-32.4A113 113 0 0 1 1062 430l4-5.5c11.9-17.8 38-41.7 56.3-51.5 9.4-5 21.7-9 27.9-9 4.3 0 5.4.4 8.4 3.4 2.8 2.8 3.4 4.2 3.4 7.5 0 5.7 4.6 8.1 8.6 4.3 3.4-3.1 4.6-6.4 4.6-12.2 0-15.8-17.4-23.7-39.5-18-20.9 5.3-42.6 18.8-63.3 39.5a224 224 0 0 0-34.4 43.8c-1.2 2.4-4.9 6.1-24 23.3a351 351 0 0 1-34.8 27.1 190 190 0 0 1-33.2 16.9 39 39 0 0 1-26-.5 44 44 0 0 1-21.7-26.1c-4.2-11.2-6-21.2-3.9-22.8.6-.5 5.4-1.9 10.6-3.2a152 152 0 0 0 76.3-44c10.7-11.4 14.7-19 14.7-28 0-4.8-.5-6.9-2.2-9.3-3.1-4.5-4.6-5.5-10.3-6.7-20.9-4.8-66.4 27.6-105.1 74.8l-3.8 4.5-4.5 5.7a37 37 0 0 1-3.8 4.5c-.6.5-3.7 4.1-6.7 7.9-8.5 10.4-8.5 10.4 9.9-28.9 12.7-27.1 13.2-28 21.3-35.7 26.6-25.2 67.4-67.3 86.7-89.3l8.1-9.1 4.5-5.4 4.4-5.4c1.9-2 17-21 21.6-27.1a705 705 0 0 0 27.3-40.6c5.8-10 12.4-24.3 15.7-33.9 3.4-9.7 3.1-22.2-.5-28.5-3.6-6.1-7.2-7.8-15.6-7.3-8.7.5-18.1 5.1-30 14.7a284 284 0 0 0-31 31l-4.5 5.5a488 488 0 0 0-30.6 41.8 246 246 0 0 0-12.8 20.1 127 127 0 0 0-9.1 15.2l-4 7-4.2 7.2a2782 2782 0 0 0-45.6 91.3c-5 10.9-7.9 17.2-10.6 23.5-4.1 9.4-3.9 9.1-27.6 33.2a2990 2990 0 0 0-37.1 38.4c-42.3 44.7-71.5 70.3-86.1 75.5-4.8 1.6-10.1 1.8-12.9.4-4.4-2.4-5.4-6.5-5.4-22.5.1-18.3 2.2-29.9 10.5-57l3-10a187 187 0 0 1 7.1-20.7c.5-1 .9-2.4.9-3.2s1.9-3.2 4.1-5.3a848 848 0 0 0 77.5-79.3 1269 1269 0 0 0 41.4-51.5 857 857 0 0 0 41.5-63 231 231 0 0 0 17.3-35.5 39 39 0 0 0 3.6-19.4c.1-9.8 0-10.2-3.1-14.8-7.4-10.5-20.7-9.6-37.9 2.7a306 306 0 0 0-35.5 34.5l-6.4 7.6-3.5 4.4-6.5 8.4a652 652 0 0 0-41.5 62.5q0 1-1 1.1t-1 1.1A1027 1027 0 0 0 706.5 402l-2.5 6.5c-1.6 3.9-4.9 13-5.5 15.1-.6 2.4-2.5 4.1-21.5 20.5-44.4 38.1-72.6 57.7-92.2 64.3-9.8 3.3-12 3.3-16-.3-3.3-2.9-3.3-3.1-3.2-11.5 0-4.7.6-10.4 1.4-12.8l2.6-8.3c2.7-8.7 7.8-20.5 13.5-31.2a66 66 0 0 0 5.9-13.6c0-3-5.1-7.7-8.3-7.7a22 22 0 0 0-10.1 5.3l-8.1 9.2c-33.6 38.5-66.6 68.9-85.6 79-11 5.8-15.5 4.4-15.3-4.6q.5-13.6 14.9-36.9a218 218 0 0 1 37-46.5c22-22 45.7-35.5 62.2-35.5 4.9 0 5.8.4 8.4 3.1 2.3 2.5 2.9 4 2.9 7.8 0 5.1 1.3 7.1 4.5 7.1 5.4 0 9.5-6.4 9.5-14.7 0-16.7-20.8-24.3-46-16.7a140 140 0 0 0-41 23.3c-27.1 21.8-55.2 58.5-65.5 85.6l-3.5 9c-3 7.9-3.8 18.2-1.8 24.7 2.2 7.4 11 13.7 19.4 13.8 16.1.1 41.5-17 73.2-49.4 6.3-6.4 11.8-11.6 12.3-11.6 1.3 0 1.1 1.9-.6 7.6-1.8 6-2 22.4-.3 27.3a25 25 0 0 0 11.3 14.1c14.1 6.8 34 1.2 61.8-17.3A411 411 0 0 0 655 481a230 230 0 0 0 18.5-16.1q11.3-10.5 12.8-9.3c.3.3-.1 2.5-.9 4.7a340 340 0 0 0-12.5 56.2c-2.4 24 2.5 41.5 13.2 47.1 21.5 11.2 54.1-10.5 117.1-78.1l11.3-12 13.8-15.3c8.8-9.9 11.5-12.1 10.4-8.5a87 87 0 0 1-5.8 14.4c-.8 1.3-2.3 4.4-3.3 6.9l-3.1 7.5-2.8 6.5-3.5 8.1c-1.2 2.5-3.1 7-4.2 10l-3.5 8.4-3 7-5.5 13-2.3 5.5c-3.9 9-4.7 11.4-4.7 13.9.1 5.5 5.8 9 11.7 7 2.9-.9 8.3-6.3 8.3-8.3a346 346 0 0 1 20-38c0-1.1 17.7-26.9 23.4-34.1 3.1-3.9 5.6-7.5 5.6-8.1s1.6-2.5 3.5-4.4c2.9-2.8 3.7-3.1 5-2 .8.7 1.5 2.7 1.5 4.5 0 8.1 8.2 24.6 16.8 33.7A45 45 0 0 0 930 517c16.5 0 32.5-5.9 53.5-19.9 8.6-5.7 24.8-18.5 28-22.1 2-2.2 7.4-5.4 8-4.8.2.2-.3 3.7-1.1 7.8-2.5 13 .1 22.5 7.5 27.1 13.4 8.5 34.2-.8 67.4-30.2 3.9-3.5 12-11.3 17.9-17.4s11-10.6 11.4-10.3c.4.4.1 3.4-.6 6.5a106 106 0 0 0-1.8 15.2c-1 25.4 12.5 35.4 38.3 28.2 8.5-2.4 26.4-11.3 38-18.9 15.9-10.5 43.2-32 57.7-45.7 3.8-3.6 7.5-6.5 8.2-6.5 1.5 0 1 4.6-.5 5.6q-.8.6-.9 2.3c0 .9-.9 3.6-2 5.9a23 23 0 0 0-2 5.1c0 .6-.8 2.5-1.8 4.3s-2.4 5.3-3.2 7.8c-.7 2.5-1.6 4.9-2 5.5l-1.9 5a899 899 0 0 0-17 50c-9.3 31.3-11.5 43.8-11.5 66 0 16.9.1 18.4 2.6 25.3 4.2 11.6 8.5 16.1 17 17.6 7.4 1.3 14.5-4.4 11.8-9.5q-1-2-4.6-1.9c-7.3 0-10.4-7.5-10.4-24.8 0-19.4 6.1-46.6 18.3-82.7l6.1-18 3.5-10 2.1-5.5 2.2-6c.6-1.4 1.5-3.5 1.9-4.8l4.4-11.2c1.6-4.3 2.4-6.3 5.8-14l3.2-8a496 496 0 0 1 11.2-26l6.5-14.5a1024 1024 0 0 1 13.8-30c8.8-18.6 27.2-55.4 33.3-67 13-24.3 16.9-31.6 22.4-41.3l4-7.3c.7-1.5 1.9-3.2 2.6-3.7 3.7-3.1 76.7-16.6 109.2-20.2a98 98 0 0 1 28.2 0 9 9 0 0 1 4.3 3.5q1.4 2.5 3.9 2.5c3.2 0 4.4-.8 6-3.7 3.1-5.9-1-12.1-9.9-14.7-14-4.2-55.7-.7-109.3 9-10.9 2-20 3.4-20.3 3.1-.6-.5.7-2.9 10.1-18.2l8.8-14.5 14.1-21.5c10.7-16 12-18.5 12.1-22.3 0-3.4-.5-4.8-2.4-6.3-3-2.4-8.7-2.4-12.7 0m-373.6 27.4c2 2.4-3.3 20.1-9.4 31.2l-5.7 10.7a625 625 0 0 1-49.6 70.8c-.4.3-2.6 3-5.1 6l-5.5 6.6a481 481 0 0 1-16.1 18.4l-9.6 10.5c-33.9 36.9-41.3 44.5-43.3 44.5-1.2 0 1.5-6.7 6.1-15.5l10.2-19.5a891 891 0 0 1 22.2-41l1.8-2.9a667 667 0 0 1 57.5-84.6c8-9.7 29.4-30.3 34.8-33.4 5.7-3.3 10-3.9 11.7-1.8m-163.9 16.5c1 1.9.5 9.3-.9 12.7l-2.1 5.5a228 228 0 0 1-8.2 18.5l-3.7 7a321 321 0 0 1-14.9 24.7 491 491 0 0 1-18.6 27.4l-8.5 11.9a151 151 0 0 1-6.5 8.9l-5.5 7.1c-2.5 3.3-4.9 6.5-5.5 7.1L804 316a993 993 0 0 1-42.6 51L751 378.5c-18.8 20.8-23 24.6-23 20.8 0-1 .9-3.4 2-5.3 1.9-3.4 3.4-6.5 7-14.5a858 858 0 0 1 21.7-42.5l7.1-13.3 4.2-7.2 4-7 4.1-7.3 2.9-4.7 2.8-4.5a717 717 0 0 1 36.4-55 421 421 0 0 1 31.7-38.2c15.9-16.8 27.3-24 30-19m94.9 196.4c1.5 1.9-2.2 9-8 15.3a194 194 0 0 1-37.8 28.3c-16.8 9-33 14.4-33 11a251 251 0 0 1 35-33.9c1.7-2.2 17.8-12.8 24.5-16.2 11.6-5.8 17.1-7.1 19.3-4.5M1733 155.4a34.4 34.4 0 0 0-26.4 36.1 67 67 0 0 0 7.7 30.5c.6 1.4 4.1 8.1 7.8 15 16.3 30.6 18 34.4 20.7 44.5l2.2 8.2c2 7.7 3 7.2 33-15.6 44-33.3 58.6-47.9 64.8-64.3a58 58 0 0 0-.2-29.2 31 31 0 0 0-15.3-13.9c-6-2.8-7-2.9-15-2.4-7.1.4-9.7 1.1-15.6 4-4 2-10.1 6.1-13.7 9.1a38 38 0 0 1-7.5 5.6 24 24 0 0 1-4.2-6.8q-6-12.6-17.7-18.1a29 29 0 0 0-20.6-2.7m-.7 8.9c.7.6 4.1 4.6 7.7 8.7l8.3 9.5 6 6.7c2.2 2.7 4.4 4.8 4.8 4.8.7 0 2.2-5.9 3.4-13.2q1.2-7.3 4-1.9c1.2 2.4 1.3 3.9.5 7.8l-2.4 12.1c-.8 4.1-1.7 7.6-2 7.9s-5.6-.2-11.8-1.1l-37.3-5.8c-.8-1-1.3-6.8-.6-7.2s13.2 1 16.4 2c3.9 1.2 1.9-1.9-8.6-13.3q-6.9-7.3-2.2-7.3 1.2 0 1.7.9c.2.5 4.3 5.5 9.2 11 7.7 8.6 9.3 10 12.8 10.6 2.2.4 4.2.5 4.4.2s-4.9-6.5-11.5-13.8a130 130 0 0 1-12.1-14.5c0-1.2 5.7-5.3 7.3-5.4q1 .1 2 1.3m98.7 12.9c-.1 1.2-25.1 16.5-37.9 23.2l-5.6 3 5.3.9 5.4.9 15.1-8.8c23.2-13.4 22.5-13 23.7-11.8.7.7 1.4 2.9 1.7 5l.5 3.9-8.9 4.9c-10.4 5.9-16.1 9.6-14.8 9.6 2.7 0 18 3.1 18.7 3.8.4.4-.3 1.9-1.5 3.4l-2.2 2.7-23.5-3.5a433 433 0 0 1-25.6-4.3l-2.1-.9 1.8-10.9c1-5.9 2.3-11.8 2.8-13 1-2.1 5.8-6 6.5-5.2.2.2-.2 3.5-1 7.4-1.6 8.3-1.7 10.5-.5 10.5.9 0 16.6-8.7 30.1-16.7 8.6-5.2 12-6.3 12-4.1m-89.3 49.9c8.1 1.2 15.1 2.4 15.5 2.8.6.6-1.4 11.9-5.3 29.6-.7 2.7-1.4 7-1.8 9.5q-.5 4.6-2.3 4.8c-3.1.6-3.3-7.2-.5-20.4a84 84 0 0 0 2.1-12.6c-.3-.4-3.1.9-6.3 2.7a30 30 0 0 1-7.6 3.5c-3.1 0-.9-2.5 5.4-6 3.5-2 6.3-4 6.3-4.5-.1-.6-2-1.3-4.2-1.6-3.2-.4-5.2 0-8.5 1.7-3.3 1.8-4.5 2.1-5.3 1.1a88 88 0 0 1-6.2-12.2c0-.9 3.2-.6 18.7 1.6m50.8 6.9c16.3 2.2 20.5 2.9 20.5 3.6 0 1.2-5.7 5.3-7.2 5.4q-1.6 0-1.2 1.5c.9 2.3-3.2 1.9-4.9-.6-1.6-2.1-9.7-4-9.7-2.2 0 .5 1.6 2.4 3.5 4.3s3.5 4 3.5 4.6c0 1.4-6.1 6.5-7.6 6.3-.5 0-2.9-2.5-5.4-5.4s-5-5.4-5.5-5.4c-.6-.1-2.2 5.4-3.5 12.1-2.2 10.6-2.8 12.4-5.2 14.1-4.8 3.6-4.8 3.2 1.3-24.3l2.6-12.8c.7-3.8-.4-3.7 18.8-1.2m89.4 77c-24.3 6.1-54.1 27.8-76.9 56l-7.2 8.5a13 13 0 0 0-2.8 3.6 714 714 0 0 1-52.5 47c-17.1 14.4-41.2 29.6-52.2 32.9-13.9 4.2-15.6-8.3-4.6-34.9a499 499 0 0 1 31.4-60.9l2.9-4.7 2.8-4.5 7.6-12.5c3.1-4.9 5.9-9.9 6.2-11.2 1.3-4.8-3.2-10.3-8.3-10.3-3.9 0-9.7 4.8-14.4 11.7-2.7 4-4.9 7.4-4.9 7.7s-1.8 3.4-4.1 7.1c-3.9 6.5-5.3 8.8-10 17.2l-2.9 4.8c-.4.5-2.7 4.6-5 9-25.2 47.1-31.9 69.8-25.4 85.4q5.1 11.9 20 12.1c16.5 0 36.3-11.3 73.4-42 15.1-12.5 15-12.4 15.5-11.8.3.2-.7 4.5-2.2 9.4-5.7 18.9-2.7 32.3 8.2 36.4a44 44 0 0 0 19.1 0c5.6-2.2 15-7.2 21.8-11.8 9.2-6.2 28.3-22.6 37.9-32.6l10.4-10.9q5.9-6 4.7 1c-.4 2.1-1.1 4.6-1.5 5.5a77 77 0 0 0 .4 24.8c6.1 17.6 24.1 22.3 51.5 13.4a240 240 0 0 0 62.7-36.5l12-10c20.6-17 56.9-52.1 60.6-58.6q1.8-2.8.8-5.1c-2-5.3-5-4-18.5 8.5a682 682 0 0 1-26.8 23.8l-12.6 10.6c-34.1 28.2-62.1 46.1-82.3 52.4-21 6.7-29.3 3.3-29-11.9.2-14.5 6.4-31.4 21.3-58.6 3.4-6.2 3.7-8.6 1.4-11.8q-3.4-4.9-9.7-3.1c-3.3.9-5.1 2.6-22.2 21.5A826 826 0 0 1 1849 409c-24.3 24.3-50.9 43.9-59.6 44-8.7 0-7.5-13.1 3.1-34.2a235 235 0 0 1 22.5-34.3c21.7-28.9 51-51.7 73.9-57.6 13.6-3.5 19.5-1 21.1 8.7 1.2 7.4 3.3 9 7.8 5.8q5-3.6 5.2-12.4c0-8-3.2-12.6-12-17.1a48 48 0 0 0-29.1-.9"/><path d="M1654.8 316.4a160 160 0 0 0-42.3 25.7 214 214 0 0 0-21.4 19.3 82 82 0 0 1-16 14.5c-.4-1.3 1.1-5.2 6.9-17.4l6.3-13.5 3.2-7.3c2.3-5 .7-9.3-4.3-11.4-3.2-1.3-3.8-1.3-8.1.9-5.2 2.7-6.9 5.8-18.6 32.8-5.6 13-8.6 18.4-11.8 21.3l-9.8 9-9 8.2L1514 412a656 656 0 0 1-46 34.7c-32.5 21.7-56.1 32.2-74 33-8.5.4-10 .2-14-1.9a23 23 0 0 1-11.5-18 58 58 0 0 1 2.7-22.3l1.3-4 9-.6c20.4-1.4 36.2-8.5 61.5-27.7 6.8-5.1 19.7-18.9 24.7-26.3 9.3-13.8 12.5-23.4 10.5-32.1a20 20 0 0 0-11.6-14.4c-20-9.3-54.2 9-83.3 44.7a197 197 0 0 0-29.2 49.9 86 86 0 0 0-4 41.5 35 35 0 0 0 31 26.7c28.2 3.9 68.4-14.5 118.2-53.9a396 396 0 0 0 25.6-21.3c6.3-5.7 8.5-6.4 7.5-2.3-.4 1.6-1.6 4.4-2.7 6.3a182 182 0 0 0-8 16l-6.2 13.4a169 169 0 0 0-11.5 27.7c0 3.5 4.4 6.9 8.9 6.9 5.5 0 9.1-3.4 12.6-11.7 1.6-3.7 4.7-10.2 6.8-14.3l7.7-14.7a134 134 0 0 1 8-13.7c0-1.2 16.4-25.2 21.3-31.1a491 491 0 0 1 43.1-43.1c6-5.9 26.6-19.1 38-24.5q16.2-7.7 21.8-3a9 9 0 0 1 3 4.3c.7 5 7.7 4.9 10.3-.2.8-1.6 1.5-5.1 1.5-7.9 0-5.8-3.2-10.4-8.7-12.7a39 39 0 0 0-23.5 1m-196.4 31.7c3.5 2.8 3.4 6.8-.7 14.6-6.2 12-21.8 28.2-36.5 38-13.5 8.9-32.5 17.3-39.2 17.3-3.5 0-3.5 0-1.1-4.3l3.3-5.8c.7-1.3 1.6-2.6 1.9-2.9q.6-.6 1.1-2a182 182 0 0 1 24.6-30.2c14.4-13.8 25-21 37.2-24.9 6.9-2.3 6.3-2.3 9.4.2"/></svg>