<?xml version="1.0" standalone="no"?>
<!DOCTYPE svg PUBLIC "-//W3C//DTD SVG 20010904//EN"
 "http://www.w3.org/TR/2001/REC-SVG-20010904/DTD/svg10.dtd">
<svg version="1.0" xmlns="http://www.w3.org/2000/svg"
 width="2086.000000pt" height="754.000000pt" viewBox="0 0 2086.000000 754.000000"
 preserveAspectRatio="xMidYMid meet">

<g transform="translate(0.000000,754.000000) scale(0.100000,-0.100000)"
fill="#000000" stroke="none">
<path d="M8645 7143 c-559 -36 -1823 -251 -2962 -504 -125 -27 -280 -61 -343
-75 -356 -77 -1014 -249 -1420 -370 -960 -289 -1713 -632 -2110 -963 -59 -49
-188 -176 -232 -228 -108 -127 -188 -296 -188 -396 0 -128 82 -235 215 -281
65 -22 208 -32 261 -17 53 14 74 49 51 84 -13 21 -27 25 -88 31 -205 21 -286
120 -226 281 40 109 193 277 380 419 208 158 561 350 927 506 494 210 1184
435 1840 600 91 22 187 48 213 57 71 22 78 9 40 -69 -17 -35 -52 -108 -78
-163 -26 -55 -64 -136 -85 -180 -21 -44 -48 -102 -60 -130 -12 -27 -35 -77
-50 -110 -15 -33 -38 -82 -50 -110 -13 -27 -42 -92 -66 -143 -24 -52 -44 -95
-44 -97 0 -1 -22 -49 -49 -106 -48 -103 -71 -154 -112 -246 -11 -27 -31 -70
-44 -98 -12 -27 -29 -66 -38 -85 -8 -19 -24 -56 -36 -82 -12 -27 -30 -69 -42
-95 -12 -27 -27 -61 -34 -78 -8 -16 -32 -70 -54 -118 -23 -49 -41 -91 -41 -92
0 -2 -27 -66 -61 -142 -33 -76 -67 -151 -74 -168 -7 -16 -22 -51 -34 -77 -11
-26 -21 -50 -21 -53 0 -3 -9 -27 -21 -53 -12 -26 -25 -57 -30 -69 -5 -13 -13
-33 -18 -45 -5 -13 -18 -44 -30 -70 -12 -26 -21 -54 -21 -61 0 -7 -4 -17 -8
-22 -5 -6 -28 -59 -52 -120 -24 -60 -47 -114 -52 -119 -4 -6 -8 -16 -8 -23 0
-7 -9 -35 -21 -61 -28 -62 -82 -199 -190 -482 -50 -131 -156 -423 -178 -490
-12 -36 -26 -73 -31 -82 -6 -10 -10 -25 -10 -33 0 -8 -4 -23 -9 -33 -16 -31
-28 -66 -61 -172 -18 -58 -41 -132 -52 -165 -10 -33 -23 -73 -28 -90 -5 -16
-17 -57 -25 -90 -9 -33 -21 -73 -25 -90 -48 -171 -105 -424 -120 -533 -6 -45
-11 -140 -11 -210 0 -252 71 -404 201 -433 98 -22 198 51 144 105 -8 9 -28 16
-43 16 -40 0 -77 33 -98 88 -38 100 -15 376 54 642 14 52 29 111 33 130 14 56
27 102 42 150 8 25 21 65 28 90 27 93 146 464 159 495 10 22 12 27 71 200 43
124 124 345 164 450 35 90 206 527 216 550 4 11 15 36 23 55 9 19 23 55 32 80
17 45 25 67 46 118 7 15 15 36 19 47 5 11 17 41 29 67 12 26 21 50 21 53 0 2
11 28 24 57 13 29 38 87 54 128 17 41 51 122 77 180 26 58 60 139 76 180 17
41 41 98 53 125 74 159 86 186 86 190 0 2 11 28 24 57 23 51 43 95 87 196 12
26 36 79 55 118 18 39 47 102 65 140 17 38 55 121 84 184 29 63 67 147 85 185
18 39 52 113 77 165 25 52 57 120 70 150 14 30 47 100 73 155 26 55 55 116 63
135 8 19 39 85 67 145 29 61 65 138 80 172 16 34 36 64 47 67 10 3 56 14 103
25 47 11 126 29 175 41 85 20 160 37 420 96 351 79 636 135 1435 280 237 43
825 136 1010 160 144 19 475 25 566 10 47 -8 53 -6 68 15 18 26 21 61 6 88
-28 52 -220 79 -455 64z"/>
<path d="M14194 6171 c-17 -10 -42 -34 -55 -53 -13 -18 -27 -37 -32 -43 -15
-19 -143 -221 -186 -295 -24 -41 -65 -109 -91 -150 -27 -41 -60 -97 -75 -125
-15 -27 -35 -61 -44 -75 -9 -14 -27 -46 -40 -72 -13 -26 -31 -54 -40 -62 -9
-8 -88 -31 -176 -51 -244 -55 -700 -180 -920 -254 -33 -11 -127 -41 -210 -66
-236 -74 -391 -134 -419 -162 -36 -36 -36 -96 -1 -119 30 -20 30 -20 261 61
277 97 581 188 1064 318 263 71 280 74 280 52 0 -9 -8 -29 -19 -43 -10 -15
-37 -63 -61 -107 -23 -44 -57 -107 -75 -140 -28 -51 -69 -129 -173 -330 -24
-47 -176 -361 -220 -455 -31 -67 -50 -110 -129 -285 -47 -105 -79 -143 -243
-285 -34 -30 -71 -62 -82 -72 -10 -9 -38 -31 -61 -50 -23 -18 -57 -47 -77 -63
-199 -172 -494 -375 -676 -467 -99 -49 -132 -61 -185 -65 -59 -5 -66 -3 -90
21 -32 32 -37 61 -28 158 12 124 117 398 211 547 56 90 22 169 -67 158 -42 -6
-75 -36 -205 -188 -254 -296 -564 -593 -736 -705 -178 -117 -250 -108 -229 29
12 80 77 235 137 324 15 23 28 44 28 48 0 7 80 127 90 135 3 3 21 28 40 55
119 178 380 417 563 515 94 50 217 90 279 90 43 0 54 -4 84 -34 28 -28 34 -42
34 -75 0 -57 46 -81 86 -43 34 31 46 64 46 122 0 158 -174 237 -395 180 -209
-53 -426 -188 -633 -395 -135 -135 -291 -333 -344 -438 -12 -24 -49 -61 -240
-233 -85 -78 -265 -218 -348 -271 -97 -63 -254 -143 -332 -169 -82 -28 -202
-26 -260 5 -104 54 -168 131 -217 261 -42 112 -60 212 -39 228 6 5 54 19 106
32 293 69 557 221 763 440 107 114 147 190 147 280 0 48 -5 69 -22 93 -31 45
-46 55 -103 67 -209 48 -664 -276 -1051 -748 -10 -13 -27 -33 -38 -45 -10 -12
-30 -38 -45 -57 -14 -19 -31 -39 -38 -45 -6 -5 -37 -41 -67 -79 -85 -104 -85
-104 99 289 127 271 132 280 213 357 266 252 674 673 867 893 39 44 75 85 81
91 5 6 26 31 45 54 18 23 39 47 44 54 19 20 170 210 216 271 54 70 236 341
273 406 58 100 124 243 157 339 34 97 31 222 -5 285 -36 61 -72 78 -156 73
-87 -5 -181 -51 -300 -147 -83 -67 -239 -223 -310 -310 -19 -24 -40 -48 -45
-55 -64 -72 -185 -238 -306 -418 -55 -81 -99 -150 -99 -153 0 -4 -13 -25 -29
-48 -16 -23 -38 -59 -50 -80 -11 -20 -30 -53 -41 -72 -11 -19 -29 -51 -40 -70
-11 -19 -30 -52 -42 -72 -73 -128 -105 -190 -249 -483 -89 -179 -164 -334
-169 -345 -4 -11 -21 -49 -38 -85 -50 -109 -79 -172 -106 -235 -41 -94 -39
-91 -276 -332 -124 -126 -291 -299 -371 -384 -423 -447 -715 -703 -861 -755
-48 -16 -101 -18 -129 -4 -44 24 -54 65 -54 225 1 183 22 299 105 570 12 39
25 84 30 100 12 48 60 188 71 207 5 10 9 24 9 32 0 8 19 32 41 53 343 316 519
497 775 793 85 99 278 335 334 410 14 18 30 38 35 44 6 6 26 34 45 61 18 28
36 52 40 55 23 19 311 460 375 575 92 165 122 226 155 310 4 11 12 31 18 45
31 76 36 102 36 194 1 98 0 102 -31 148 -74 105 -207 96 -379 -27 -73 -52
-275 -249 -355 -345 -30 -35 -58 -70 -64 -76 -5 -6 -21 -26 -35 -44 -14 -18
-43 -56 -65 -84 -86 -109 -355 -504 -355 -522 0 -3 -13 -25 -30 -49 -16 -24
-30 -48 -30 -54 0 -6 -4 -11 -10 -11 -5 0 -10 -5 -10 -11 0 -6 -8 -23 -19 -37
-53 -76 -320 -590 -405 -782 -16 -36 -41 -92 -56 -125 -45 -99 -58 -128 -75
-175 -9 -25 -21 -54 -25 -65 -16 -39 -49 -130 -55 -151 -6 -24 -25 -41 -215
-205 -444 -381 -726 -577 -922 -643 -98 -33 -120 -33 -160 3 -33 29 -33 31
-32 115 0 47 6 104 14 128 7 24 19 61 26 83 27 87 78 205 135 312 32 61 59
123 59 136 0 30 -51 77 -83 77 -22 0 -80 -31 -101 -53 -6 -7 -42 -48 -81 -92
-336 -385 -666 -689 -856 -790 -110 -58 -155 -44 -153 46 3 90 53 214 149 369
118 192 201 296 370 465 220 220 457 355 622 355 49 0 58 -4 84 -31 23 -25 29
-40 29 -78 0 -51 13 -71 45 -71 54 0 95 64 95 147 0 167 -208 243 -460 167
-113 -34 -281 -129 -410 -233 -271 -218 -552 -585 -655 -856 -15 -38 -30 -79
-35 -90 -30 -79 -38 -182 -18 -247 22 -74 110 -137 194 -138 161 -1 415 170
732 494 63 64 118 116 123 116 13 0 11 -19 -6 -76 -18 -60 -20 -224 -3 -273
22 -64 65 -118 113 -141 141 -68 340 -12 618 173 111 75 283 200 297 217 3 3
25 21 50 40 59 46 100 81 185 161 74 69 119 102 128 93 3 -3 -1 -25 -9 -47
-44 -123 -111 -424 -125 -562 -24 -240 25 -415 132 -471 215 -112 541 105
1171 781 36 39 87 93 113 120 26 28 88 96 138 153 88 99 115 121 104 85 -15
-49 -44 -122 -58 -144 -8 -13 -23 -44 -33 -69 -10 -25 -23 -58 -31 -75 -7 -16
-19 -46 -28 -65 -8 -19 -24 -56 -35 -81 -12 -25 -31 -70 -42 -100 -12 -30 -27
-67 -35 -84 -7 -16 -20 -48 -30 -70 -23 -54 -45 -106 -55 -130 -4 -11 -15 -36
-23 -55 -39 -90 -47 -114 -47 -139 1 -55 58 -90 117 -70 29 9 83 63 83 83 0
16 149 302 180 346 11 16 20 31 20 34 0 11 177 269 234 341 31 39 56 75 56 81
0 5 16 25 35 44 29 28 37 31 50 20 8 -7 15 -27 15 -45 0 -81 82 -246 168 -337
111 -117 206 -158 372 -158 165 0 325 59 535 199 86 57 248 185 280 221 20 22
74 54 80 48 2 -2 -3 -37 -11 -78 -25 -130 1 -225 75 -271 134 -85 342 8 674
302 39 35 120 113 179 174 59 60 110 106 114 103 4 -4 1 -34 -6 -65 -8 -32
-15 -100 -18 -152 -10 -254 125 -354 383 -282 85 24 264 113 380 189 159 105
432 320 577 457 38 36 75 65 82 65 15 0 10 -46 -5 -56 -5 -3 -9 -13 -9 -23 0
-9 -9 -36 -20 -59 -11 -22 -20 -46 -20 -51 0 -6 -8 -25 -18 -43 -10 -18 -24
-53 -32 -78 -7 -25 -16 -49 -20 -55 -3 -5 -12 -28 -19 -50 -7 -22 -16 -49 -21
-60 -19 -44 -116 -330 -149 -440 -93 -313 -115 -438 -115 -660 0 -169 1 -184
26 -253 42 -116 85 -161 170 -176 74 -13 145 44 118 95 -8 13 -21 19 -46 19
-73 0 -104 75 -104 248 0 194 61 466 183 827 19 55 46 136 61 180 15 44 31 89
35 100 5 11 14 36 21 55 7 19 17 46 22 60 6 14 15 35 19 48 5 12 13 32 18 45
5 12 17 42 26 67 16 43 24 63 58 140 8 19 23 55 32 80 23 59 49 121 112 260
14 30 43 96 65 145 74 165 85 189 138 300 88 186 272 554 333 670 130 243 169
316 224 413 14 26 32 59 40 73 7 15 19 32 26 37 37 31 767 166 1092 202 117
13 244 13 282 0 17 -6 36 -22 43 -35 9 -17 22 -25 39 -25 32 0 44 8 60 37 31
59 -10 121 -99 147 -140 42 -557 7 -1093 -90 -109 -20 -200 -34 -203 -31 -6 5
7 29 101 182 37 61 77 126 88 145 12 19 75 116 141 215 107 160 120 185 121
223 0 34 -5 48 -24 63 -30 24 -87 24 -127 0z m-3736 -274 c20 -24 -33 -201
-94 -312 -12 -22 -38 -70 -57 -107 -41 -77 -230 -361 -321 -481 -89 -118 -169
-221 -175 -227 -4 -3 -26 -30 -51 -60 -25 -30 -49 -60 -55 -66 -5 -6 -32 -38
-60 -70 -27 -32 -73 -84 -101 -114 -27 -30 -71 -77 -96 -105 -339 -369 -413
-445 -433 -445 -12 0 15 67 61 155 9 17 55 104 102 195 92 179 138 265 170
321 11 20 26 47 34 60 7 13 15 26 18 29 3 3 11 16 18 29 156 276 391 622 575
846 80 97 294 303 348 334 57 33 100 39 117 18z m-1639 -165 c10 -19 5 -93 -9
-127 -4 -11 -14 -36 -21 -55 -14 -39 -65 -154 -82 -185 -6 -11 -22 -42 -37
-70 -15 -27 -45 -80 -68 -117 -23 -38 -59 -96 -81 -130 -41 -67 -136 -207
-186 -274 -16 -22 -55 -76 -85 -119 -30 -43 -59 -83 -65 -89 -5 -6 -30 -38
-55 -71 -25 -33 -49 -65 -55 -71 -5 -6 -21 -26 -35 -44 -77 -104 -318 -392
-426 -510 -22 -25 -69 -76 -104 -115 -188 -208 -230 -246 -230 -208 0 10 9 34
20 53 19 34 34 65 70 145 27 59 151 308 160 320 4 6 30 53 57 105 27 52 60
112 71 133 12 20 31 53 42 72 11 19 29 51 40 70 11 19 29 52 41 73 12 20 25
42 29 47 4 6 17 26 28 45 63 113 202 323 364 550 75 106 215 274 317 382 159
168 273 240 300 190z m949 -1964 c15 -19 -22 -90 -80 -153 -69 -76 -265 -222
-378 -283 -168 -90 -330 -144 -330 -110 0 16 218 233 295 294 28 21 52 42 55
45 17 22 178 128 245 162 116 58 171 71 193 45z"/>
<path d="M17330 5986 c-72 -15 -138 -54 -181 -108 -64 -80 -84 -142 -83 -253
1 -105 18 -171 77 -305 6 -14 41 -81 78 -150 163 -306 180 -344 207 -445 6
-22 15 -59 22 -82 20 -77 30 -72 330 156 440 333 586 479 648 643 25 65 23
241 -2 292 -29 58 -81 105 -153 139 -60 28 -70 29 -150 24 -71 -4 -97 -11
-156 -40 -40 -20 -101 -61 -137 -91 -36 -31 -69 -56 -75 -56 -5 1 -24 31 -42
68 -40 84 -99 144 -177 181 -73 35 -132 43 -206 27z m-7 -89 c7 -6 41 -46 77
-87 36 -41 73 -84 83 -95 11 -11 37 -41 60 -67 22 -27 44 -48 48 -48 7 0 22
59 34 132 8 49 21 55 40 19 12 -24 13 -39 5 -78 -6 -26 -17 -81 -24 -121 -8
-41 -17 -76 -20 -79 -3 -3 -56 2 -118 11 -62 9 -171 25 -242 36 -70 10 -129
20 -131 22 -8 10 -13 68 -6 72 8 5 132 -10 164 -20 39 -12 19 19 -86 133 -46
49 -53 73 -22 73 7 0 15 -4 17 -9 2 -5 43 -55 92 -110 77 -86 93 -100 128
-106 22 -4 42 -5 44 -2 3 3 -49 65 -115 138 -67 74 -121 139 -121 145 0 12 57
53 73 54 5 0 14 -6 20 -13z m987 -129 c-1 -12 -251 -165 -379 -232 l-56 -30
53 -9 54 -9 151 88 c232 134 225 130 237 118 7 -7 14 -29 17 -50 l5 -39 -89
-49 c-104 -59 -161 -96 -148 -96 27 0 180 -31 187 -38 4 -4 -3 -19 -15 -34
l-22 -27 -235 35 c-129 19 -244 39 -256 43 l-21 9 18 109 c10 59 23 118 28
130 10 21 58 60 65 52 2 -2 -2 -35 -10 -74 -16 -83 -17 -105 -5 -105 9 0 166
87 301 167 86 52 120 63 120 41z m-893 -499 c81 -12 151 -24 155 -28 6 -6 -14
-119 -53 -296 -7 -27 -14 -70 -18 -95 -4 -31 -11 -46 -23 -48 -31 -6 -33 72
-5 204 14 66 23 122 21 126 -3 4 -31 -9 -63 -27 -33 -19 -67 -35 -76 -35 -31
0 -9 25 54 60 35 20 63 40 63 45 -1 6 -20 13 -42 16 -32 4 -52 0 -85 -17 -33
-18 -45 -21 -53 -11 -11 14 -62 114 -62 122 0 9 32 6 187 -16z m508 -69 c163
-22 205 -29 205 -36 0 -12 -57 -53 -72 -54 -11 0 -15 -5 -12 -15 9 -23 -32
-19 -49 6 -16 21 -97 40 -97 22 0 -5 16 -24 35 -43 19 -19 35 -40 35 -46 0
-14 -61 -65 -76 -63 -5 0 -29 25 -54 54 -25 29 -50 54 -55 54 -6 1 -22 -54
-35 -121 -22 -106 -28 -124 -52 -141 -48 -36 -48 -32 13 243 11 52 23 110 26
128 7 38 -4 37 188 12z"/>
<path d="M18819 4430 c-243 -61 -541 -278 -769 -560 -25 -30 -57 -68 -72 -85
-16 -16 -28 -33 -28 -36 0 -12 -341 -321 -452 -411 -23 -18 -56 -45 -73 -59
-171 -144 -412 -296 -522 -329 -139 -42 -156 83 -46 349 50 121 152 325 231
464 37 64 61 106 83 145 12 20 25 42 29 47 4 6 17 26 28 45 11 19 45 75 76
125 31 49 59 99 62 112 13 48 -32 103 -83 103 -39 0 -97 -48 -144 -117 -27
-40 -49 -74 -49 -77 0 -2 -18 -34 -41 -71 -39 -65 -53 -88 -100 -172 -12 -21
-25 -42 -29 -48 -4 -5 -27 -46 -50 -90 -252 -471 -319 -698 -254 -854 33 -79
102 -120 200 -121 165 0 363 113 734 420 151 125 150 124 155 118 3 -2 -7 -45
-22 -94 -57 -189 -27 -323 82 -364 38 -14 153 -14 191 0 56 22 150 72 218 118
92 62 283 226 379 326 42 45 89 93 104 109 38 40 56 36 47 -10 -4 -21 -11 -46
-15 -55 -13 -25 -10 -208 4 -248 61 -176 241 -223 515 -134 167 55 453 221
627 365 11 10 65 54 120 100 206 170 569 521 606 586 12 19 14 35 8 51 -20 53
-50 40 -185 -85 -49 -45 -98 -90 -110 -100 -89 -77 -149 -130 -158 -138 -6 -6
-63 -54 -126 -106 -341 -282 -621 -461 -823 -524 -210 -67 -293 -33 -290 119
2 145 64 314 213 586 34 62 37 86 14 118 -22 32 -55 43 -97 31 -33 -9 -51 -26
-222 -215 -147 -162 -199 -217 -295 -314 -243 -243 -509 -439 -596 -440 -87 0
-75 131 31 342 37 74 155 261 174 278 3 3 26 32 51 65 217 289 510 517 739
576 136 35 195 10 211 -87 12 -74 33 -90 78 -58 33 23 52 67 52 124 0 80 -32
126 -120 171 -63 32 -187 36 -291 9z"/>
<path d="M16548 4376 c-118 -42 -271 -135 -423 -257 -92 -74 -185 -159 -214
-193 -41 -49 -156 -154 -160 -145 -4 13 11 52 69 174 26 55 54 116 63 135 8
19 22 52 32 73 23 50 7 93 -43 114 -32 13 -38 13 -81 -9 -52 -27 -69 -58 -186
-328 -56 -130 -86 -184 -118 -213 -18 -16 -62 -57 -98 -90 -36 -34 -77 -71
-90 -82 -41 -34 -154 -130 -159 -135 -43 -43 -335 -263 -460 -347 -325 -217
-561 -322 -740 -330 -85 -4 -100 -2 -140 19 -64 33 -106 100 -115 180 -7 65 4
154 27 223 l13 40 90 6 c204 14 362 85 615 277 68 51 197 189 247 263 93 138
125 234 105 321 -16 69 -53 115 -116 144 -200 93 -542 -90 -833 -447 -108
-134 -227 -331 -273 -454 -4 -11 -12 -31 -19 -45 -44 -97 -65 -319 -40 -415
38 -148 150 -244 310 -267 282 -39 684 145 1182 539 133 105 203 163 256 213
63 57 85 64 75 23 -4 -16 -16 -44 -27 -63 -26 -45 -49 -92 -80 -160 -14 -30
-42 -91 -62 -134 -74 -159 -115 -257 -115 -277 0 -35 44 -69 89 -69 55 0 91
34 126 117 16 37 47 102 68 143 22 41 57 108 77 147 21 40 48 86 59 102 12 16
21 32 21 35 0 12 164 252 213 311 66 81 278 297 356 365 36 30 69 60 75 66 60
59 266 191 380 245 109 51 179 61 218 30 15 -12 28 -31 30 -43 7 -50 77 -49
103 2 8 16 15 51 15 79 0 58 -32 104 -87 127 -51 22 -158 17 -235 -10z m-1964
-317 c35 -28 34 -68 -7 -146 -62 -120 -218 -282 -365 -380 -135 -89 -325 -173
-392 -173 -35 0 -35 0 -11 43 11 19 25 45 33 58 7 13 16 26 19 29 3 3 8 12 11
20 14 39 165 224 246 302 144 138 250 210 372 249 69 23 63 23 94 -2z"/>
</g>
</svg>
