<svg xmlns="http://www.w3.org/2000/svg" width="2086" height="754" aria-labelledby="talkateria-logo-title" viewBox="0 0 2086 754"><title>Talkateria</title><defs><clipPath id="a" clipPathUnits="userSpaceOnUse"><path d="M1733 155q-11 3-18 11-8 10-8 25c0 11 1 18 7 31l8 15c16 31 18 34 21 45l2 8c2 7 3 7 33-16 44-33 59-48 65-64 2-7 2-24 0-29q-4-9-16-14c-6-3-7-3-15-3-7 1-9 1-15 4l-14 9-7 6-5-7q-6-12-17-18-11-4-21-3"/></clipPath></defs><g fill="#092f6e"><path d="M865 40a2523 2523 0 0 0-331 58c-36 7-101 24-142 37-96 28-171 63-211 96-6 5-19 17-23 23a75 75 0 0 0-19 39q1 21 22 28c6 3 20 4 26 2q8-2 5-8-2-3-9-3-32-4-23-29c4-10 20-27 38-41 21-16 56-35 93-51a1340 1340 0 0 1 205-66q10-4 4 7l-7 16-9 18-6 13-5 11-5 11-7 15-4 9-16 36-4 9-4 9-4 8-4 10-3 7-6 12-10 24-7 16-4 8-2 5-2 6-11 26-5 12-6 15-2 6a1195 1195 0 0 0-48 129l-5 17-3 9-3 9-2 9a531 531 0 0 0-13 74q0 38 20 43c10 2 20-5 14-10l-4-2q-6 0-10-9c-4-10-1-37 6-64l7-28 3-9a1587 1587 0 0 1 61-170l2-5 3-8 5-12 2-5 3-6 2-6 2-5 13-31 13-31 11-24 9-20 6-12 6-14 8-18 9-19 8-16 14-31 6-13 7-15 13-23 10-3 17-4 42-10a3208 3208 0 0 1 245-44c14-2 47-2 57-1q5 2 6-1 3-4 1-9c-3-5-22-8-46-6"/><path d="m1419 137-5 5-3 4a705 705 0 0 0-48 78l-17 5a1229 1229 0 0 0-155 49q-6 6 0 12c3 2 3 2 26-7a1473 1473 0 0 1 134-37l-2 5-13 24-40 79-13 28c-4 11-8 15-24 29l-8 7-6 5-8 6c-20 18-49 38-68 47q-12 7-18 7-8 1-9-2-5-4-3-16c1-13 12-40 21-55 6-9 2-17-6-16-5 1-8 4-21 19-25 30-56 59-74 71q-26 17-22-3a102 102 0 0 1 16-38l13-19c12-17 38-41 56-51 10-5 22-9 28-9q6-1 9 3t3 8q2 10 9 4 4-4 4-12c0-16-17-24-39-18q-32 8-64 39c-13 14-29 34-34 44-1 3-5 6-24 24l-35 27c-9 6-25 14-33 17-8 2-20 2-26-1q-15-7-22-26-6-18-4-23l11-3q45-11 76-44 16-16 15-28 1-7-2-9-3-6-10-7c-21-5-67 28-106 75l-3 4-5 6-4 4-6 8c-9 11-9 11 10-29 12-27 13-28 21-35 26-25 67-68 87-90l8-9 4-5 5-5 48-68c6-10 13-24 16-34q5-17 0-29-5-8-16-7-13 1-30 15c-8 7-24 22-31 31l-4 5a487 487 0 0 0-53 77l-4 7-4 8a740 740 0 0 0-46 91l-10 23c-4 10-4 10-28 34l-37 38q-64 67-86 76h-13c-4-2-5-7-5-23 0-18 2-29 10-57l3-10 8-23 4-6a848 848 0 0 0 178-229c3-8 3-10 3-19 1-10 0-11-3-15q-11-16-38 2c-7 6-27 25-35 35l-6 8-4 4-6 8a652 652 0 0 0-46 69 1027 1027 0 0 0-53 108l-3 6-5 16-22 20q-65 56-92 64c-10 4-12 4-16 0-3-3-3-3-3-11l1-13 3-9q4-13 13-31l6-13q-2-6-8-8l-10 5-8 9c-34 39-67 69-86 79q-16 9-15-4 0-14 15-37c11-19 20-30 37-47q35-34 62-35 6-1 8 3 3 3 3 8 0 7 5 7 8-1 9-15c0-16-21-24-46-16-11 3-28 12-41 23-27 22-55 58-65 85l-4 9q-5 14-2 25 5 13 20 14 25-1 73-49l12-12v8c-2 6-2 22-1 27q4 10 12 14 21 10 61-17a411 411 0 0 0 54-42q11-10 12-9l-1 4c-4 13-11 43-12 56q-3 37 13 48c22 11 54-11 117-79l36-35-6 14-3 7-3 7-3 7-11 26-3 7-6 13-2 6c-4 9-5 11-5 14q2 9 12 7 6-3 8-8a346 346 0 0 1 58-87l1 4c0 9 8 25 17 34 11 12 20 16 37 16q24 1 54-20l28-22 8-5-2 8q-3 20 8 27 19 13 67-30l30-28-1 7-2 15q-1 38 39 28c8-2 26-11 38-19a535 535 0 0 0 65-52c2 0 1 5 0 6l-1 2-2 6-2 5-2 4-3 8-2 5-2 5-2 6-15 44a196 196 0 0 0-9 92q6 16 17 17c8 2 15-4 12-9q-1-2-5-2-10 0-10-25 0-28 18-83l6-18 4-10 2-5 2-6 2-5 5-11 9-22 11-26 6-15a1024 1024 0 0 1 47-97l23-41 6-11c4-3 77-16 109-20h29l4 3q1 3 4 3 4 0 6-4 4-10-10-14c-14-5-56-1-109 9l-21 3 11-19 8-14 14-22c11-16 12-18 12-22q0-4-2-6-6-5-13 0m-373 27c2 3-3 20-10 31l-5 11a625 625 0 0 1-50 71l-5 6-5 7-17 18-9 11c-34 36-42 44-44 44q-1-1 7-15l34-64c15-27 39-62 57-84 8-10 30-31 35-34q9-5 12-2m-164 17c1 2 0 9-1 12l-2 6-8 18-4 7-15 25a491 491 0 0 1-39 55l-5 8-4 4-43 51-10 11c-19 21-23 25-23 21l2-5 7-15 22-42 7-13 4-8 4-7 4-7 3-5 3-4a717 717 0 0 1 68-93q25-26 30-19m95 196q1 4-8 15c-7 8-27 23-38 29-17 9-33 14-33 11a251 251 0 0 1 60-50q16-8 19-5m905-66c-24 6-54 28-77 56l-10 12-52 47c-18 15-42 30-53 33q-21 6-4-35a499 499 0 0 1 31-61l3-4 3-5 14-24c1-4-4-10-9-10q-6 1-14 12l-5 7-4 8-10 17-3 5-5 9c-25 47-32 69-25 85q5 12 20 12c16 0 36-11 73-42l15-12-2 10q-7 29 8 36h20a223 223 0 0 0 59-44l11-11q5-6 4 1l-1 5v25q9 27 52 13c16-5 45-22 62-36l13-10c20-17 56-52 60-59l1-5c-2-5-5-4-19 9l-39 34q-51 42-82 53-31 10-29-12c0-15 6-32 21-59q5-8 1-12-3-5-9-3c-4 1-5 3-22 22l-30 31c-24 24-51 44-60 44q-12-1 4-34l22-35c22-28 51-51 74-57q19-6 21 9 1 11 8 5 5-3 5-12 1-12-12-17c-6-3-19-4-29-1"/><path d="M1655 316q-19 8-42 26c-10 7-19 16-22 19-4 5-15 16-16 15l7-18 6-13 4-7q3-8-5-12-3-2-8 1c-5 3-7 6-18 33q-8 18-12 21l-10 9-25 22-46 35q-47 31-74 33c-8 0-10 0-14-2q-10-5-11-18-1-12 2-22l2-4 9-1c20-2 36-9 61-28 7-5 20-19 25-26q13-21 10-32-2-10-11-15c-20-9-55 9-84 45a197 197 0 0 0-29 50c-4 10-6 32-4 42q7 22 31 26 43 6 118-54 20-14 26-21 9-9 7-2l-2 6-8 16-6 13q-12 25-12 28 1 7 9 7 7 1 13-12l22-42c0-2 16-26 21-32l43-43c6-6 27-19 38-24q16-7 22-3l3 4c1 5 8 5 11 0l1-8q0-9-9-13-9-2-23 1m-197 32q6 4 0 15c-6 12-22 28-37 38-13 9-32 17-39 17q-4 1-1-4l3-6 2-3 1-2c2-4 17-22 25-30q20-20 37-25c7-2 6-2 9 0"/></g><g clip-path="url(#a)"><path fill="#0d316e" d="M1434 133q4 6 4 13l-1 3h-2v3h-2v2l-4 7-4 7h-2v3h-2v3h-2l-2 6h-2v3h-2v3h-2v3h-2v4h-2v2l-4 7-1 2-1 2h-2l-1 2-3 8 14-2 22-4 6-1c73-11 73-11 90-3l2 2v2h2v4h2v9h-2l-1 5q-5 4-12 1l-2-5q-5-2-11-2h-3q-14 0-26 3l-9 1-44 7-25 5-9 2c-7 1-7 1-12 6l-3 6h-2v4h-2v2l-4 9h-2v4h-2v3h-2v4h-2v4h-2v4h-2v2l-2 6h-2v3h-2v2l-4 8c-11 19-11 19-19 39h-2v2l-4 11h-2v4h-2v5h-2v2l-2 6h-2v4h-2v5h-2v5h-2v5h-2v2l-3 7v2l-1 2h-2v5h-2v2l-8 18-4 11-7 16-2 7h-2v6h-2v5h-2v3l-3 9-1 7h-2v5h-2v6h-2v6h-2v3l-2 10h-2v7h-2v3l-1 4-1 5v5h-1l-1 6h-2v10h-2v18l-1 4v2l1 1v16h2v3h2l3 1h3l4 2v11q-10 7-22 3l-7-4v-4h-2v-4h-2l-1-3 1-2h-2v-5h-2l-1-6v-4l1-6h-2v-8h2l-1-3v-9l1-8h2l-1-3v-5l1-3v-2h2l-1-3 1-6h2l-1-3 1-5h2v-4l2-10h2v-8h2v-2l2-7 8-23 3-6 3-9 5-13 3-9-3-3h-2v2h-2v2h-2v2h-2l-1 2-3 1v2h-2v2l-4 1v2l-3 3-2 1-4 1v2l-7 5-2 2-7 3v2l-4 1v2l-5 3-3 2-4 1v2l-2 1-3 2-3 1-5 3q-8 7-18 8l-3 1q-17 6-32-2v-2h-2v-2h-2q-4-3-4-9v-3h-2v-20l-5-2-1 2h-2v2h-2v2h-2l-2 4h-2v2h-2v2l-4 1v2h-2v2h-2v2c-5 5-5 5-8 5v2l-4 1v2l-4 1v2l-6 4-2 1-5 3-2 1q-15 10-33 7l-6-3v-2l-2-1-2-6h-2l-1-8h-1l-1-5h-9l-2 1v2l-4 1v2c-5 4-5 4-8 4v2l-5 3-3 2-4 1v2l-10 5-3 1-15 6-3 1-15 1h-3q-13 0-25-5v-2l-6-2v-2h-2v-2l-4-2v-2h-2v-2h-2v-2h-2v-3h-2v-3h-2q-3-3-2-8h-2v-4h-2v-4h-2l-5-3-1 2-2 2h-2v2l-2 4h-2v2h-2l-1 2c-2 6-2 6-5 9l-6 8-2 3-3 6h-2v2l-4 8h-2v4h-2v2l-2 6h-2v2l-3 6v2l-1 2h-2v5h-2l-2 5h-2v2h-2v2h-13v-2h-2v-2h-2v-4h-2l2-10h2v-2q3-11 9-21l5-13 4-10 2-4 3-6 2-7h2l-1-6h-7v2h-2v2h-2v3h-2v2h-2v2h-2l-1 3-5 6h-2v2h-2l-1 3-3 3h-2l-2 5h-3v2h-2v2h-2v2h-2l-2 4h-2v2h-2v2h-2v2h-2v2h-2v2l-4 4h-2v2l-4 1v2h-2v2h-2l-1 2-3 1v2h-2v2l-6 4-6 4-15 10-4 3q-14 5-29 2l-2-1v-2l-2-1-4-2v-2h-2v-3h-2v-3h-2l-3-14h-1v-21h2v-18h1v-4l1-3 1-3 1-5v-4h2v-10h-8l-2 1v2h-2v2l-4 1v2q-3 4-6 3v2l-4 1v2h-2v2c-5 4-5 4-8 4v2l-4 1v2l-4 1v2l-5 3-3 3-7 3-1 2-6 3-6 3-2 1-5 3q-18 9-37 5l-8-3v-2h-2v-2h-2v-3h-2q-6-15-5-32l-3-1v2h-2v3h-2l-1 3-3 1v2h-2v2h-2v2h-2v2h-2v2q-4 5-11 7v2q-3 4-6 3v2l-4 1v2l-4 1v2l-4 1v2l-6 2v2c-10 5-22 10-33 6l-8-3v-2h-2v-2h-2v-3h-2q-5-12-2-25h2v-5h2v-5h2v-5h2v-4h2v-5h2v-4h2v-4h2v-4h2v-3h2v-3h2v-3h2v-3h2l2-5h2l1-4h2l1-2 3-6h2v-2l4-5h2v-2h2l2-5h2v-2h2v-2h2v-2h2v-2h2v-2h2v-2h2v-2h2v-2l9-7 2-2c20-15 43-27 68-24l11 4v2l3 1 4 3 1 5h2v14h-2v2l-3 7q-6 2-13 0l-3-3v-4l-2-8h-3l-3-1q-14 0-26 8l-4 1v2l-8 3v2l-4 1v2h-2v2l-6 5-2 2-4 1-1 3-4 4h-2v2h-2l-2 4h-2l-2 5h-2l-2 5h-2v2h-2v2h-2v3h-2v3h-2v2h-2v3h-2v4h-2v3h-2v3h-2v3h-2v6l-4 1v4h-2v2l-1 3v3l-3 6h-2v3l-2 11h2v3l5-2 5-2 3-3 5-2h2l2-1v-2l4-1v-2l4-1v-2h2v-2h2v-2l4-1v-3l4-1v-2h2l1-2 3-1v-2h2v-2h2l2-4h2v-2l4-3 7-7 2-3h2v-2h2v-2h2l1-2 3-5h2l2-4h2v-3l4-4h2v-2h2v-3h2v-2h2v-2h2v-2h2v-2h2v-3h2v-2q8-4 16 0l3 1v2h2v10h-2v3h-2v2l-3 6v2l-1 2h-2v4h-2v2l-2 5-2 8h-2v5h-2v2l-2 6q-2 12 1 22l5 3q15-3 27-11l7-3v-2l6-2v-2l6-2v-2l4-3 11-8 4-1v-2q3-4 6-3v-2l4-3 2-2 4-1v-2l4-1v-2h2v-2h2v-2h2l1-2 3-1v-2h2v-2l4-1v-2h2v-2q3-4 6-3v-2l5-3q6-5 7-13l4-8 2-7 5-13h2v-4h2v-5h2v-2l2-7h2v-4h2v-2l2-7h2v-2l2-6h2v-4h2v-2l2-6h2v-4h2v-4h2v-4h2v-2q3-9 9-16l8-15h2v-2l3-7 5-8h2v-2l2-5h2v-3h2v-3h2v-3h2v-3h2v-3h2v-3h2v-3h2v-3h2v-3h2v-3h2v-2h2v-3h2v-3h2l1-2 5-8 5-6h2v-2l4-6h2v-2h2v-3h2v-2h2v-2h2l2-5h2v-2h2v-2h2v-2h2v-2h2v-2h2v-2h2v-2h2v-2h2l2-1 1-3q4-5 7-4l1-3q4-4 7-3l1-2q11-5 24-3 6 3 10 11l2 2h1q1 21-8 41l-1 3-4 8h-2v4h-2v4h-2v3h-2v2l-4 9h-2v3h-2v3h-2v4h-2v3h-2v3h-2v2l-2 5h-2v2l-2 4h-2v2h-2v3h-2v2l-2 4h-2l-1 2-4 8-2 3-2 2h-2v3h-2v3h-2v2h-2l-2 5h-2v3h-2v2h-2v3h-2l-2 5h-2l-2 5h-2l-1 3-3 4-2 1v2h-2v2h-2v3h-2l-2 5h-2v2h-2v3l-4 3-7 8-2 3h-2v2h-2v2h-2l-2 5h-2v2h-2v2h-2v2h-2v2h-2v2h-2v3h-2v2h-2v2h-2v2h-2v2h-2v2h-2v2l-4 4h-2v2q-3 4-6 3v3l-2 1q-5 3-9 8l-4 2v2h-2v2l-4 4h-2v2l-2 8h-2v3q0 5-3 10l-1 6h-2v7h-2v5h-2v8h-2v8h-1l-1 12h-1l-1 8h-2v30h2v2l3 3q9 2 17-3l6-4h2v-2h2l1-2 7-4v-2h2v-2l4-1v-2h2v-2h2v-2q4-5 7-4v-2l4-4 2-2 4-1v-2h2v-2h2l2-4h2l2-4h2v-2h2v-3h2v-2h2v-2h2v-2h2v-2h2v-2h2l1-3 3-1v-2h2l1-2q0-3 4-5l1-3 5-2v-2l5-4 1-2h2v-2h2v-2h2l2-4h2v-2h2l1-2 3-5h2v-2h2v-2h2v-2h2v-2h2v-2h2v-2h2v-2h2v-2h2v-3l4-3q6-6 9-13l2-3 1-3 1-3 14-32h2v-2l4-9 1-3 1-2h2l-1-3 3-6h2v-4h2v-4h2v-4h2v-2q0-5 3-7l1-3h2v-4h2v-2l8-15 3-6h2v-2l2-5h2v-2l2-5h2v-2l4-8h2v-2l2-5h2v-3h2v-3h2v-3h2v-3h2v-4h2v-3h2v-3h2v-3h2v-3h2v-2l4-6h2v-3h2l1-2 4-7 2-3 2-2h2l2-4h2v-3h2l2-5h2l2-5h2v-2h2v-2h2v-3h2v-2h2v-2h2v-2h2l1-2 5-6 2-2 4-1v-2h2v-2l7-5 2-1 7-3v-2q9-3 17-3h2q7-1 12 3 7 8 8 18-1 12-6 23l-2 4-4 11h-2v2l-4 8-1 3-1 2h-2v3h-2v2l-2 5h-2v3h-2v3h-2v3h-2v3h-2v3h-2v3h-2v3h-2v3h-2v2h-2v3h-2v3h-2l-1 2-11 14-1 2h-2l-2 5h-2l-2 5h-2l-2 5h-2v2h-2v2h-2v3h-2v2h-2v2h-2l-2 5h-2l-1 3-3 4h-2v2h-2v2h-2v2h-2l-2 5h-2v2l-4 3-6 6-1 2h-2l-1 2q-2 4-6 7l-2 2-1 2h-2v2h-2v2h-2v2h-2v2h-2v2h-2v2h-2v2h-2v2h-2v2h-2v2h-2v2h-2v2h-2v2l-5 4-1 2h-2l-1 3-4 3-1 3h-2l-1 2-1-1-1 2h-2v2h-2l-1 6h-2l-1 3h-2v4h-2v2l-2 6h-2v2l-2 7h-2v3l6 2v-2h2v-3h2l2-5h2l1-3 1-2h2l2-4h2v-2h2v-2h2l1-3 3-4h2v-2h2l1-3 5-3 2-2 6-5 2-3 5-1v-2h2v-2l4-1v-2l4-1v-2l6-2v-2l8-3v-2c11-6 24-12 37-8l5 2 1 3h2q6 8 4 19l-2 6h-2v2l-2 5h-2v3h-2v2h-2l-1 2-5 7h-2v2h-2v2l-4 1v2h-2v2h-2v2l-4 3-3 1-2 2-8 6-13 7-7 3-13 5-2 1-16 4-5 1c1 9 1 9 5 18h1l1 6 3 5v3h2q2 2 2 5h2l5 5 3 1v2l9 1v2l24-6h3v-2l2-1q12-5 23-13l4-1v-2h2l3-3 3-3h2v-2h2v-2h2l2-1 1-2 3-1v-2h2v-2l4-1v-2h2v-2c5-5 5-5 8-5v-2l4-4 2-1 5-3v-2h2v-3h2v-3h2v-2l4-7h2v-3h2v-2l2-4h2v-2h2v-2l6-8h2v-2h2v-3h2l2-4h2v-2h2v-2l3-3 5-5 9-5v-2l4-3 3-2 7-3v-2l8-3v-2l12-5 3-1q21-10 42-3 6 3 9 9l2 2q3 4 2 9v7h-2l-1 2-1 2-1 3q-2 3-5 2h-8q-4-4-4-12v-2q-6-4-13-2l-10 4-5 2q-8 3-14 8l-6 2v2c-5 4-5 4-8 4v2h-2v2l-4 1v2h-2v2h-2v2h-2v2h-2v2h-2l-2 5h-2v2h-2v2h-2v3h-2l-2 5h-2l-1 2-5 8-5 8h-2v2l-4 7-1 2-1 2h-2v2l-4 8-2 6h-2v2l-1 4v3l-3 11 7-1h3l8-4h2v-2h2l1-2 5-2v-2h2v-2h2l1-2 7-4v-2q4-5 7-4v-2h2v-2h2v-2h2v-2h2v-2h2v-2h2v-2h2v-2h2v-2h2v-2h2v-2h2v-2h2v-2h2v-2h2v-2h2l1-2 3-5h2v-2h2l1-2q2-4 6-7l6-8h2v-2h2v-3h2l1-2q2-4 7-6h11q4 3 5 8l-2 10h-2v2l-4 9h-2v5h-2v2l-3 6v2l-1 2h-2v7h-2l-1 9-2 4v7l-1 3v10h2v2q11 1 21-5l6-2 4-3 5-3 15-9 6-3v-2c5-4 5-4 8-4v-2c5-4 5-4 8-4v-2l6-2v-2h2v-2l4-1v-2l6-5 4-2 1-2 5-4 5-2v-2h2v-2q3-4 6-3v-2h2v-2l4-1v-2h2v-2h2v-2h2v-2h2v-2h2v-2h2v-2l2-6h2v-2l2-7h2v-4h2v-5h2v-5h2v-3q-1-5 3-6l2-5 1-2 1-2h2v-4h2v-2l3-7v-2l1-2h2v-2l4-8 1-4 1-2h2v-4h2v-4h2v-2l3-7 1-3 4-3v-2l4-10h2v-2l3-6v-2l1-2h2v-2l4-7 2-6q-12 2-22 6l-8 2-15 4-26 7q-33 9-64 21l-3 1-2 1q-10 4-21 0v-13h2l1-2q4-4 10-6h2l44-15 8-3 8-2 2-1 19-5 12-4 38-10 2-1 24-5h4l2-1 2-6h2v-4h2v-3h2v-2l4-9h2v-2l2-5h2v-3h2v-2l2-5h2v-3h2v-4h2v-3h2v-2l3-5 2-2 2-4q5-5 5-11h2l1-2h2v-3h2v-2l1-2 3-1v-2q9-6 19-3m-396 32-3 2-5 4v2h-2v2l-4 1v2h-2v2h-2v2h-2v2h-2v2l-2 1-5 4v2h-2v2h-2l-4 5-2 3-2 4h-2l-2 5h-2v3h-2v3h-2l-3 4-1 2-2 5h-2v3h-2v3h-2v3h-2v3h-2v3h-2v3h-2l-2 6h-2v3h-2l-1 3-4 6-6 8-2 3-2 7h-2v4h-2v3h-2l-2 7h-2v4h-2v3h-2v4h-2v4h-2v5h-2v3h-2l-2 7h-2v4h-2l1 4 2-1v2l3 1 4-3v-2h2v-2h2v-3l4-1v-3h2v-2h2v-2h2v-3h2v-2h2l4-4v-2h2v-3h2v-2h2v-2h2v-2h2l1-2 1-3 3-1v-2h2q4-3 4-7h2v-2h2l2-5h2v-3h2v-2h2l2-3 4-5v-3h2v-2h2v-3h2v-3h2v-2h2v-3h2v-3h2v-3h2v-3h2v-2h2l2-3 1-2 1-5h2v-3h2l4-6 2-2 8-15 2-4 1-4 2-1 1-4 1-2v-2l-3-1 5-1q3-7 2-15zm-163 16v2l-6 3v2h-2v2h-2v2h-2l-3 3-1 2h-2v2h-2v2h-2v2l-2 1q-4 2-6 6l-3 3v2h-2l-3 4-2 2-1 4h-2v2h-2v3h-2v3h-2l-2 5h-2v3h-2v3h-2c-3 4-3 4-4 9h-2v3h-2v3h-2v2h-2l-1 3-5 7c-3 4-3 4-4 9h-2l-3 7h-2l-1 3q-1 4-5 7v3h-2v4h-2v3h-2l-2 4-1 2-1 5h-2v3h-2v4h-2q-2 3-2 8h-2v4h-2v3h-2v4h-2v4h-2q-2 3-2 8h-2v3h-2v4h-2q-2 3-2 8h-2q-2 4-2 9h2l1 3 1-1 10-11 4-5 2-2 2-4h2l4-4v-3h2v-2h2v-2h2v-3h2l2-5h2v-2h2l2-2v-3h2v-2h2v-3h2q4-3 4-7h2l4-4 2-3 1-4h2l3-5 6-7 1-4h2v-3h2v-3h2l2-5h2l3-4 2-3 1-5h2l2-5h2l4-9h2v-3h2l2-7h2v-3h2v-3l3-1 4-6 1-3 2-3 1-2 6-10 1-2q3-5 3-12h2v-4h2q3-7 2-16zm41 154v4h-2v6l2 1 4-4-1-6zm-8 16 1 2Zm49 33-2 1-7 4-2 1-3 2-2 1-1 1v2h-2v2l-3 1v2h-2l-5 3v3l-4 1v2h-2l-3 3-1 2h-2v2h-2v2h-2l-4 4v2h-2l2 4 1-2 5-1 9-3 2-1 3-1 2-2 3-1 9-5v-2h2v-2l4-1v-2l4-1v-2l4-1v-2l4-2v-2h2l2-2 3-2q3-3 3-8v-3q-7-1-13 3m14-3 1 3 1-3zm-234 3-1 5h2v-5zm-2 6 1 3Zm524 41v4l1-4zm-392 5v7l2-2-1-5zm-188 26q-2 4-2 9l1 3v2h1v-8h2v-6zm147 1v3h-2v8l2 1v-4h2v-8zm188 12v9h1v-9z"/><path fill="#0d306d" d="M879 37h4q15-1 29 5v3h2v10h-2v3l-9 3h-5v-2q-10-2-21-1h-3l-34 3h-4l-20 4-13 2-17 3-6 1-25 4-6 1h-5l-6 2-16 3-7 1h-3l-9 2-12 3-34 6-9 2q-15 2-29 6l-4 1-4 1-2 1-9 2-16 3-19 4-13 3-7 1-7 1v2l-7 1v4h-2v5h-2v2l-2 6h-2v4h-2v5h-2v6l-2 1q-4 2-3 6l-5 11q-6 10-9 20h-2v4h-2v4h-2v2l-4 11h-2v2l-1 3v3l-3 6h-2v2l-2 6h-2v5h-2v4h-2v2l-2 7h-2v5h-2v4h-2v2l-5 11-2 5-1 2-4 8-4 9-3 9h-2v5h-2v3h-2v2l-2 7h-2v5h-2v5h-2v5h-2v5h-2v5h-2v4h-2v5h-2v4h-2v6h-2v2l-2 7h-2v2l-4 12h-2v2l-7 16-3 8-1 3-2 7h-2v2l-6 19h-2v4h-2v6h-2v5h-2v2l-2 8h-2v5h-2v6h-2v3q1 4-2 7h-2v6h-2v5h-2v6h-2v5h-2v2l-3 10-1 7h-2v2q1 3-2 5l-1 4-1 3-2 5-5 14-3 8v3l-1 3-2 7h-2v3l-2 8-4 15h-2v7h-2v8l-1 1-1 5v4h-2v6h-2v9h-2v11h-1l-1 35h2v5h2l3 1h3q5 1 6 5v10q-4 6-11 5-9 1-16-3v-2h-2v-2h-2v-2h-2v-3h-2l-3-6 1-3h-2v-8h-2v-38l1-1 1-6v-6h2v-7l1-5 1-6 6-21 4-14 7-23 2-7h2l-1-3 2-4 3-10 2-6h2l-1-2 2-5 1-4 1-2 1-3v-2l2-6h2v-5h2v-6h2v-2l2-9 2-6h2v-5h2v-5h2v-5h2l-1-3 1-3h2v-5h2v-2l3-11 1-2 2-5 2-1 1-4 6-16h2v-3l6-17h2v-5h2v-2l2-8 4-10h2v-5h2v-4h2v-5h2v-2l2-8h2v-2q0-6 4-10l2-7 2-4 2-5h2v-2l3-7 1-3 1-3 4-8 6-14h2v-2l4-10 1-3 1-3h2l-1-3 3-1v-2q0-5 3-8l3-9h2v-4h2v-4h2v-2l2-7h2v-5h2v-4h2v-5h2v-2l2-6h2v-2q4-14 12-27l8-18 5-11h2v-4h2v-4h2v-6h2l-1-6-17 3-3 1-9 2-3 1-59 17-15 4-20 7-12 4-20 7-24 9-3 1-5 1-1 2-4 2-3 1-2 1-6 2-2 1-10 4-5 1v2l-2 1-8 4q-7 4-14 5v2h-4v3l-2 1q-12 3-22 12l-8 4-5 2v2l-4 1v2h-2l-1 2-5 2v2h-2v2h-2l-1 2c-6 5-6 5-8 5v2h-2v2h-2v2h-2v3h-2v2h-2v2h-2v2l-2 5h-2v3h-2v4h-2v17h2v2h2v2l22 5 5 1v2h2v9h-2v2q-7 3-15 2h-3q-15 1-26-6l-2-2-2-1v-2h-2q-10-15-6-34l2-6h2l1-2 8-14h2v-3h2l2-5h2l2-5h2v-2h2v-2c5-5 5-5 8-5v-2h2v-2h2v-2h2v-2l4-1v-2l4-1v-2h2v-2l6-2v-2l9-4v-2l3-2 4-2 2-1 11-7 20-10 7-4 22-10 2-1 8-2v-2l27-10 5-3 26-9 14-5a364 364 0 0 1 60-18q34-11 67-18l10-2 27-7 5-1 26-5v-2h4l14-3 15-3 6-2 15-3 28-5 53-11h2l6-1 7-2 34-6h3l55-9h6a729 729 0 0 1 82-8m-380 89v4l1-4z"/><path fill="#10336f" d="M1918 312v2l4 2v2h2v4h2v14h-2l-1 7q-6 3-12 2l-1-3h-2l-3-11h-2v-2c-13-3-25 4-36 10l-6 3v2l-6 2v2h-2v2l-4 1v2h-2v2q-3 4-6 3v2h-2l-1 2q-1 4-6 7h-2l-1 2-3 5h-2v2h-2l-1 2-3 6h-2v2h-2v3h-2v3h-2l-2 5h-2v3h-2v2l-2 5h-2v3h-2v4h-2v4h-2v4h-2v5h-2v2l-1 4v3l-3 9h2v3q7-1 13-5l9-4v-2l4-1v-2l4-1v-2h2v-2l4-1v-2h2v-2h2v-2q3-4 6-3v-2h2v-2h2v-2l3-3 6-6 6-3 2-4h2v-2h2l2-5h2v-2h2v-2h2v-2h2v-3h2v-3l4-4h2v-2h2v-2h2v-2h2v-2h2v-3h2l1-3 3-4h2l1-2 4-3h7q4-1 7 2t2 7h2v3h-2v4h-2v4h-2v4h-2v2l-4 9h-2v4h-2v4h-2v5h-2v3l-2 9q-5 14 0 28c16 4 32-5 45-12l5-2v-2l2-1 4-2 8-5 2-2 7-3v-2l6-2v-2h2v-2l4-1v-2q3-4 6-3l1-2 3-1v-2h2v-2l4-1v-2q3-4 6-3l1-3 5-2v-2h2v-2l5-2v-2h2l1-3 3-3 6-5 4-2v-2h2l1-2q2-5 7-8l2-2 1 1 1-2h2v-2h2l3-1 1-2 9 3v9h-2v3h-2v2l-5 5h-2v2h-2v2h-2l-2 4h-2v2h-2l-1 2-3 4h-2v2h-2v2h-2v2h-2v2l-4 4h-2v2l-4 1v2h-2v2h-2v2h-2v2q-3 4-6 3v2h-2v2l-5 4-12 10-4 1v2h-2v2l-4 3-2 1-4 1v2l-4 1v2l-6 2v2l-4 2-2 1-4 1v2c-19 11-44 22-67 16l-7-3v-2l-3-1q-3-1-5-4v-5h-2v-5h-2v-6h-3v-10l-7-1v2h-2v3h-2v2l-4 1v2h-2v2h-2v2c-5 5-5 5-8 5v2l-4 3-6 4-5 2v2l-4 1v2l-3 1-3 2-2 1-7 5-9 1-3 1-17-2-1-3h-2v-2h-2v-2h-2v-4h-2q-2-11 0-22l-2-1-4-2v2h-2v2h-2v2l-4 1v2h-2v2h-2l-1 2-5 2v2h-2l-1 2-3 3-2 1-4 1v2l-6 4c-5 2-5 2-8 6l-6 2-2 2-10 2v2q-11 3-23 0l-7-3v-2h-2q-6-6-7-15l1-4h-2l1-10 1-7h2v-7h1l1-6h1l3-10h2v-4h2v-4h2v-5h2v-2l4-8 1-3 8-12 2-6h2v-2l4-9h2v-2l5-9 1-3h2v-3h2v-4h2v-3h2l1-5 3-1v-3h2v-2q9-6 19-4h2v3h2v9q1 4-2 7h-2v3h-2v4h-2l-1 2-5 9-7 12h-2v2l-4 7-1 3-1 2h-2v2l-2 6h-2v4h-2v3h-2v2l-2 7h-2v2l-2 7h-2l-2 9h-2v2l-2 8h-2v8h-1l-1 14h8l3-1 5-3 10-3v-2l8-3v-2l4-1v-2l4-1v-2c5-4 5-4 8-4v-2l4-3 7-6 4-1v-2l4-1v-2h2v-2h2v-2l4-1v-2h2v-2h2v-2l4-1v-2h2v-2h2v-2h2v-2h2v-2l5-4 2-2 3-1v-2h2v-2h2l1-3 4-2v-2h2l1-5h3l1-2 3-5h2v-2h2l1-2 3-5h2v-2h2l2-5h2l1-2 3-1v-2h2v-2h2v-2h2v-2l4-1v-2h2v-2h2l1-2h3v-2l4-1v-2l2-1 8-5c19-11 42-17 62-6m-53 104-2 1v3l-2 1 2 8 2-1 1-7 1-3z"/><path fill="#0e316e" d="M1670 311h2q6 0 10 2v2h2q3 1 5 5 3 9 0 18-3 5-6 5c-7 0-7 0-10-2l-4-8q-11 1-23 7l-5 1v2l-4 2-3 2-5 2v2l-6 2v2h-2v2q-4 4-7 3l-1 2-3 3h-2v2h-2v2h-2v2l-4 1v2h-2v2h-2v2h-2v2h-2v2h-2v2h-2v3h-2v2h-2v2h-2v2h-2v2h-2v2h-2v3h-2v2h-2v3h-2v2h-2v3h-2l-2 5h-2l-1 2q-2 9-9 15l-1 3h-2v2l-4 7-1 3-1 2h-2v2l-4 9-4 9h-2v4h-2v5h-2v5h-2v2h-2v3q-9 4-19 1v-2h-2v-13h2v-4h2v-5h2v-2l1-3v-3q0-3 4-5l2-4 1-2 1-2 1-3 5-12-4-1-1 2-1 3-6 1v2h-2v2l-4 3q-4 2-6 5-4 4-7 3l-2 4-2-1v2l-4 1v2l-4 1v2l-4 1v2l-8 3-1 3-6 3-4 2-5 2v2c-33 17-33 17-47 19h-2q-20 5-39-4v-2l-4-1v-2l-2-1q-4-1-6-6l-4-5h-1c-4-23-4-23-1-31l1-9q0-4 3-7l3-8 1-2 2-5h2v-2l2-6h2v-4h2v-2l4-7 1-2 1-2h2v-2l2-4h2v-2h2v-2l1-2 3-1 2-5h2v-2h2v-3h2v-2h2v-2h2v-2h2v-2l4-3 3-2 6-4v-2l7-5 2-1c12-8 27-16 43-14l9 4 4 2v2h2v2h2v3h2q3 8 2 15h-2v8h-2v5h-2v4h-2v4h-2v3h-2v3h-2v2h-2l-2 5h-2l-1 3-1 2h-2v2l-5 5-3 2-5 2v2c-5 4-5 4-8 4v2l-6 4-2 1q-21 14-47 18l-4 1-4-1-2 15h-2v4l1 2 1 3v7h2v3h2v3q18 8 38 0l23-11 3-2 17-10 4-1 1-2 5-3 3-2 8-4v-2l4-1v-2l4-1v-2l4-1v-2l4-1v-2h2v-2l4-1v-2h2l1-2 7-4v-2l4-3 8-7 5-2v-2l4-1v-2h2l1-2q1-3 5-4v-2h2v-2h2v-2h2v-2l4-1v-2l2-5h2v-4h2v-2q0-5 3-8l1-5h2v-4h2l4-15h2v-3l6-5 1-2 13-1 3 2v2h2l2 8h-2v6h-2v4h-2v5h-2v3h10v-2h2v-2h2v-2h2v-2l4-1v-2h2v-2h2v-2l4-1v-2l6-4 2-1q14-9 29-16l2-1q7-2 15-2m-221 39h-2l-4 2v2h-2q-8 2-14 7v2l-6 3v2h-2v2h-2v2h-2v2h-2v2h-2v2h-2l-2 4h-2l-2 5h-2v3l-2 1-6 7v3l-3 1-3 4-1 3-1 2 3 3q7-1 12-4l5-2q14-6 24-15v-2h2q4-2 6-5v-2h2v-2h2v-2h2l2-5h2v-3h2v-2h2v-3h2q3-3 2-7h2l1-4v-3l-1-4zm137 4v5h-2v5l2 1v-2h2v-3l2-1-2-5zm-204 60 1 3Zm146 6 1 2Z"/><path fill="#a31528" d="M1761 158v2l2 1q7 3 10 10l1 3 1-1h7l3-1 1-3 6-2 2-1q11-5 21-4h3q9 0 17 4v2h2v2l4 1v2h2l2 7h2q3 4 2 7v15h-1l-1 8h-2v5h-2v4h-2v3h-2v2h-2l-1 2q-1 5-6 8l-2 3-6 4-2 1-2 5-4 1v2l-4 3-2 2-4 1v2h-2v2l-4 1v2l-4 1v2l-4 1v2l-5 3-2 2-13 10c-10 8-10 8-13 8v2q-3 3-7 3l-6-1v-2h-2v-5h-2l-1-3c-1-11-1-11-8-21q-2-3-1-8h-2l-1-3-5-5v-7h-2v-3h-2l-1-3-4-2 1-6h-2v-5h-2q-2-4-2-9h-2l-1-6-1-3-1-6-1-3v-8l1-5 1-6h2v-6h2v-2h2v-3h2l2-5h2v-2l6-2v-2c13-5 28-7 39 3"/><path fill="#153771" d="M1761 158v2l2 1q7 3 10 10l1 3 1-1h7l3-1 1-3 6-2 2-1q11-5 21-4h3q9 0 17 4v2h2v2l4 1v2h2l2 7h2q3 4 2 7v15h-1l-1 8h-2v5h-2v4h-2v3h-2v2h-2l-1 2q-1 5-6 8l-2 3-6 4-2 1-2 5-4 1v2l-4 3-2 2-4 1v2h-2v2l-4 1v2l-4 1v2l-4 1v2l-5 3-2 2-13 10c-10 8-10 8-13 8v2q-3 3-7 3l-6-1v-2h-2v-5h-2l-1-3c-1-11-1-11-8-21q-2-3-1-8h-2l-1-3-5-5v-7h-2v-3h-2l-1-3-4-2 1-6h-2v-5h-2q-2-4-2-9h-2l-1-6-1-3-1-6-1-3v-8l1-5 1-6h2v-6h2v-2h2v-3h2l2-5h2v-2l6-2v-2c13-5 28-7 39 3m-40 1v2l-4 1v2h-2v2h-2v3h-2v2l-1 2v2l-3 3 2 32 1 1 1 7h2v2q1 6 4 10h2v5h2v4h2v4h2v3h2v4h2v4h2v3h3v2l2 5h2v2l2 7h3l1 4 1-4-2-8h2l1 9h2v3l2 9 4-1v-2l2-1q8-3 12-11v-13h2v-3l3-15 1-8h4l3 1 4 1 13 2 4 1q8 2 15-2 8-7 12-15v-2q-8-3-16-3l-22-4-10-1 1-11 1-3v-6l4-8 4-2-1 2-2 10v6l8-3 2-1 2-2 3-1 11-6 2-1 5-3 10-5-3 4-2 1-15 8-23 13v2q7 3 14 0l12-8 9-4v-2l2-1 6-3 7-2 3 9h1l-1-15h-2v-2h-2v-3q0-3-4-5a46 46 0 0 0-47 5v2h-2q-4 2-6 5v2h-2l-3-8h-2v-4h-2v-2h-2v-3l-4-1v-2q-20-13-42-3"/><path fill="#0f326e" d="M1737 154q14-1 26 8v2l4 1v3h2v2h2v4h2l3 8h2v-2c5-5 5-5 8-5v-2q15-11 34-9 9 2 16 6l1 6h2v2h2l1 15q-3-4-4-9l-10 4-5 2v2l-3 1-10 5c-12 8-12 8-20 7l-2-1v-2l2-1 30-17 7-4 3-1 1-3-13 7-2 1-11 6-3 1-5 3-2 2-2 1-5 1v-6l1-4 2-8-8 6-1 1h-2l-1 2-3 6-5-1q-4-7-5-16l-3-1v2l-1 4v3l-2 8-9-7q-2-4-6-6-3-3-3-8l-2-1q-6-2-8-8l-8 3q1 5 5 7l3 3v2h2l4 5 7 9 3 2v3l-11-1-3-5-2-2-7-9-3-3-2-2v-2h-3v4l2 1 5 4 2 2 1 2 2 2 4 6-20-2q1 12 8 24 3 6 3 11h2l3 9 8-3h5l2 1 4 2-3 2c-6 3-6 3-11 8l6-1v-2l4-2 2-1 4-1-5 25h-2l1 2 1 9-2 1v-4h-3q-2-4-2-9h-2l-2-7h-3v-3h-2v-4h-2v-4h-2v-3h-2v-4h-2v-4h-2v-5h-2c-5-7-5-7-4-12h-2v-3l-2-5-2-32 2-1 1-4 1-2v-2h2v-3h2v-2h2v-2l4-1v-2q8-5 16-5"/><path fill="#e9ecf2" d="M879 37h4q15-1 29 5v3h2v10h-2v3l-9 3h-5v-2q-10-2-21-1h-3l-34 3h-4l-20 4-13 2-17 3-6 1-25 4-6 1h-5l-6 2-16 3-7 1h-3l-9 2-12 3-34 6-9 2q-15 2-29 6l-4 1-4 1-2 1-9 2-16 3-19 4-13 3-7 1-7 1v2l-7 1v4h-2v5h-2v2l-2 6h-2v4h-2v5h-2v6l-2 1-3 3 2-8h2v-5h2v-2l3-6v-2l1-2h2v-3l2-7h2v-4l11-3 3-1 17-2v-2l55-12 7-2q27-6 55-10l13-3 16-3q7 0 13-3l16-3 18-2 23-4 18-3 24-4h3l3-1 4-1 7-1h3l7-1h3q27-4 55-1l7-1V44q-18-4-37-4h-9l-5 1h-8l-11 1-14 2-43 5-43 7-24 5h-4l-46 9-23 4-9 2-7 1-23 5-3 1h-2l-8 2-15 3-2 1-6 1-8 2-6 1h-2l-13 4-5 1-4 1h-3l-23 5-2 1-6 2-4 1-18 4-17 4-14 4-5 2h-3l-13 4-32 9-12 4-48 16-18 6-23 10-15 6q-7 2-13 6l-5 2-3 1-6 2v2l-6 1v2l-4 2h-2l-4 1-1 3-5 2q-6 2-10 6h-3l-1 3-5 2h-2l-2 1v-2l3-2 4-2 2-1 11-7 20-10 7-4 22-10 2-1 8-2v-2l27-10 5-3 26-9 14-5a364 364 0 0 1 60-18q34-11 67-18l10-2 27-7 5-1 26-5v-2h4l14-3 15-3 6-2 15-3 28-5 53-11h2l6-1 7-2 34-6h3l55-9h6a729 729 0 0 1 82-8"/><path fill="#163772" d="M1761 158v2l2 1 9 7 1 6h-2v-4h-2v-2h-2v-3l-4-1v-2l-2-1-6-2q-17-8-34 0v2l-4 1v2h-2v2h-2v3h-2l-1 8-3 1c-1 18-1 18 4 33v7h2l4 12h2v5h2v4h2v4h2v3h2v4h2v4h2v3h3l2 7h2l2 9h3l1 3-1-11h2l1 9h2l2 12 4-1v-2l3-3 3-1 2-2 2-2 8-4v-3l4-23h5l3 4 4 6 5-1 2-1h2l-2-7-4-2-1-3 10 1 1 4h3l-1-3 8-2-1 2h2v2l3 1h-2v2l-4 1v2l-4 3-2 2-4 1v2h-2v2l-4 1v2l-4 1v2h-2v2h-2v2l-1 3-4 2-5 4-11 9-3 2-4 1v2q-3 3-7 3l-6-1v-2h-2v-5h-2l-1-3c-1-11-1-11-8-21q-2-3-1-8h-2l-1-3-5-5v-7h-2v-3h-2l-1-3-4-2 1-6h-2v-5h-2q-2-4-2-9h-2l-1-6-1-3-1-6-1-3v-8l1-5 1-6h2v-6h2v-2h2v-3h2l2-5h2v-2l6-2v-2c13-5 28-7 39 3"/><path fill="#0f326e" d="M1833 168q4 2 4 5v3h2v2h2l1 15q-3-4-4-9l-10 4-5 2v2l-3 1-10 5c-12 8-12 8-20 7l-2-1v-2l2-1 30-17 7-4 3-1 1-3-13 7-2 1-11 6-3 1-5 3-2 2-2 1-5 1v-6l1-4 2-8-8 6-1 1h-2l-1 2-3 6-5-1q-4-4-3-10l1-3 2 1 6 1 1-3c5-5 5-5 8-5v-2q22-16 47-5"/><path fill="#e6eaf0" d="M1434 133q4 6 4 13l-1 3h-2v3h-2v2l-4 7-4 7h-2v3h-2v3h-2l-2 6h-2v3h-2v3h-2v3h-2v4h-2v2l-4 7-1 2-1 2h-2l-1 2-3 8 14-2 22-4 6-1c73-11 73-11 90-3l2 2v2h2v4h2v9h-2l-1 5q-5 4-12 1l-2-5q-5-2-11-2h-3q-14 0-26 3l-9 1-44 7-25 5-9 2c-7 1-7 1-12 6l-3 6h-2v4h-2v2l-4 9h-2v4h-2v3h-2v4h-2v4h-2v4h-2v2l-2 6h-2v3h-2v2l-4 8-1 2-1 2-1-4h2v-5h2v-3h2v-2l3-6v-2l1-2h2v-4h2v-2l2-6h2v-4h2l1-3 3-8h2v-4h2l2-7h2v-4h2l1-5 23-6 4-1 8-1 6-2 18-2 12-2q29-6 57-7l3-1q7 1 13 4l2 4 4 1v-2l3-2 1-5v-4h-2v-3h-2v-2h-3l-6-2h-19a347 347 0 0 0-84 9l-4 1-7 1-4 1h-9l2-1v-3h2v-5h2v-3h2v-3h2v-4h2v-3h2v-3h2v-4h2v-3h2v-2l2-5h2v-3h2l2-6h2v-4h2v-3h2v-3h2v-3h2l2-6h2v-3h2v-11h-2v-2h-8l-3 1-2 3h-2l-1 3-3 1-1 2h-3v-3h2v-2l1-2 3-1v-2q9-6 19-3"/><path fill="#cfd6e2" d="m1679 386 1 4h-2v4h-2v5h-2v4h-2l-2 9h-2v5h-2v2l-2 9-1 3-2 3q-3 12-3 23h2v6h2v4h2v3l3 1 6 2q17 4 32-5l9-6 8-2v-2l6-2v-2h2v-2l4-1v-2l5-3 3-3h2v-2l4-1v-2h2v-2l4-1v-2h2v-2l4-1v-2l5-1 1-4 4-1-2 8q-3 10-3 22l1 1v5h2v3h2l1 2q1 4 4 4 14 4 26-2l6-2v-2l6-2v-2l6-2v-2l4-1v-2h2v-2c5-4 5-4 9-4v-2l5-3 2-2 1-1h2v-2h2v-3h2v-2h2v-2h2v-2h2v-2h2v-2h2v-2h2v-2l2-1 4-3v-2h2v-2h2v6l-1 1v10l-1 4v13h2v4h2l1 7h-3l-1-7h-2v-5h-2v-6h-3v-10l-7-1v2h-2v3h-2v2l-4 1v2h-2v2h-2v2c-5 5-5 5-8 5v2l-4 3-6 4-5 2v2l-4 1v2l-3 1-3 2-2 1-7 5-9 1-3 1-17-2-1-3h-2v-2h-2v-2h-2v-4h-2q-2-11 0-22l-2-1-4-2v2h-2v2h-2v2l-4 1v2h-2v2h-2l-1 2-5 2v2h-2l-1 2-3 3-2 1-4 1v2l-6 4c-5 2-5 2-8 6l-6 2-2 2-10 2v2q-11 3-23 0l-7-3v-2h-2q-6-6-7-15l1-4h-2l1-10 1-7h2v-7h1l1-6h1l3-10h2v-4h2v-4h2v-5h2v-2l4-8 1-2zm186 30-2 1v3l-2 1 2 8 2-1 1-7 1-3z"/><path fill="#f3edef" d="m1831 176-1 4-4 2-15 8c-20 12-20 12-23 12v2c11 1 17-3 26-9q4-3 9-3v-2l5-3 2-2 8-1 1 10-2 1c-13 5-13 5-23 14h3l17 2-2 6q-20 0-41-5l-10-2 1-18v-2l4-8 5-2-3 18 19-10 12-7c9-5 9-5 12-5"/><path fill="#dbe1ea" d="M1372 203h2l-3 10h-2v2l-2 6h-2v3h-2v2l-23 5-24 5-3 1-14 5-11 3-17 5-9 2-12 4-15 5-15 5-10 2-8 4h-4v2l-7 1v2h-2v2h-2v5l1 3v2q7 2 13 0l5-2 4-1 8-4 23-7 5-1 3-1 5-2 11-4 22-5 9-3 16-5 4-1 7-1 11-4 16-2-4 9h-2v5h-2v4h-2v3l-4 1 1-4h2v-2l4-7 2-6q-12 2-22 6l-8 2-15 4-26 7q-33 9-64 21l-3 1-2 1q-11 4-21 0v-13h2l1-2q4-4 10-6h2l44-15 8-3 8-2 2-1 19-5 12-4 38-10 2-1 24-5h4l2-1 2-6h2v-4h2v-3h2v-2z"/><path fill="#f0ecef" d="m1731 163 2 1v3l2 1q7 3 10 10v3l2 1q4 2 7 6 2 5 6 6v-2l3-15h3q3 10-1 19l-1 6v5l-27-3-15-2-9-2v-7l19 1-6-7-2-3-2-2-2-2-3-2v-4h3q4 3 3 6l2 1 6 7 2 2 3 4 4 3h3l3 1h2v-3l-2-1-6-5-2-3-4-7h-2v-2l-2-1q-4-1-7-6l1-4q4-4 7-3"/><path fill="#11336f" d="M1737 154q14-1 26 8v2l4 1v3h2v2h2v4h2l1 2v2l1 2 3 3-7 1-1-2-2 2-1-3-1-3-3-1v2l-1 4v3l-2 8-9-7q-2-4-6-6-3-3-3-8l-2-1q-6-2-8-8l-3 1q-5 1-9-2l-3 1v-2l4-1v-2q8-5 16-5"/><path fill="#ced6e2" d="m499 126 1 5h-2l-1 10h-2v4h-2v2l-2 7h-2v4l-2 1-1 4-1 2v2h-2v5h-2v2l-3 7v2l-1 2h-2v2l-4 8-3 1v5h-2v2l-2 7h-2v5h-2v4h-2v5h-2v2l-2 7h-2v2l-2 7h-2v5h-2v2l-4 10-2 7h-2v2l-2 5h-3v-3h2l-1-3 3-1v-2q0-5 3-8l3-9h2v-4h2v-4h2v-2l2-7h2v-5h2v-4h2v-5h2v-2l2-6h2v-2q4-14 12-27l8-18 5-11h2v-4h2v-4h2v-6h2l-1-6-17 3-3 1-9 2-3 1-59 17-15 4-20 7-12 4-20 7-24 9-3 1-5 1-1 2-4 2-3 1-2 1-6 2-2 1-10 4h-5q11-7 24-10v-2l2-1 11-4 15-6 10-3 10-4 6-2 18-6 7-2 12-4 17-5 11-4 17-5 2-1 16-2v-2l31-8z"/><path fill="#bac5d6" d="m1526 419 3 1-1 9h-2v5h-2v2l-2 4-4 12h-2v4h-2v5h-2l-2 9h-2v4h-3v3h-2l1 8q7 3 16 2v-2l3-2 1-4h2v-2l2-8h2v-5h2v-2l6-12 4-9h2l2-7h2v-3h2l1-2 3-6h3q0 5-5 9l-1 3h-2v2l-4 7-1 3-1 2h-2v2l-4 9-4 9h-2v4h-2v5h-2v5h-2v2h-2v3q-9 4-19 1v-2h-2v-13h2v-4h2v-5h2v-2l1-3v-3q0-3 4-5l2-4 1-2 1-2 1-3 5-12-4-1-1 2-1 3-6 1v2h-2v2l-4 3q-4 2-6 5-4 4-7 3l-2 4-2-1v2l-4 1v2l-4 1v2l-4 1v2l-8 3-1 3-6 3-4 2-5 2v2l-29 14-2 1-18 4-1-2 3-1 23-8 6-1v-2l9-4 3-2 3-1 2-1 4-1v-2l6-2v-2l8-3v-2c5-4 5-4 8-4v-2l4-1v-2l6-2v-2h2v-2l4-1v-2h2v-2l4-1v-2l7-2v-2l4-1v-2h2v-2l4-1v-3l4-1v-2h2v-2l4-1z"/><path fill="#e9edf2" d="M1761 158v2l2 1 9 7 1 6h-2v-4h-2v-2h-2v-3l-4-1v-2l-2-1-6-2q-17-8-34 0v2l-4 1v2h-2v2h-2v3h-2l-1 8-3 1c-1 18-1 18 4 33v7h2l4 12h2v5h2v4h2v4h2v3h2v4h2v4h2v3h2l2 8h2v6h2v4h2v3l2 5 1 7q-1 2 3 4l5 1v-2h2v-2l4-1v-2l7-2v-2q3-4 6-3l1-2 4-4h3v-2l6-2-5 6-10 7c-10 8-10 8-13 8v2q-3 3-7 3l-6-1v-2h-2v-5h-2l-1-3c-1-11-1-11-8-21q-2-3-1-8h-2l-1-3-5-5v-7h-2v-3h-2l-1-3-4-2 1-6h-2v-5h-2q-2-4-2-9h-2l-1-6-1-3-1-6-1-3v-8l1-5 1-6h2v-6h2v-2h2v-3h2l2-5h2v-2l6-2v-2c13-5 28-7 39 3"/><path fill="#f3ecef" d="M1774 232h7l4 1 23 3q3 0 5 2l-9 6v2h-3l-1-2q-4-4-10-3l2 2 1 2 2 2q3 2 2 6c-5 3-5 3-8 3q-6-2-7-8l-1-3h-5v4l-1 6v5l-3 11-5 3 1-16h2v-2q0-12 4-24"/><path fill="#dae0e9" d="M1737 319v3h2v9q1 4-2 7h-2v3h-2v4h-2l-1 2-5 9-7 12h-2v2l-4 7-1 3-1 2h-2v2l-2 6h-2v4h-2v3h-2v2l-2 7h-2v2l-2 7h-2l-2 9h-2v2l-2 8h-2v8h-1l-1 14h8l3-1 5-3 8-2-2 4-5 2-6 3-10 1q-3-1-4-5v-9l1-4 1-7h2v-5h2v-5h2v-6h2l2-9h2v-2l2-6h2v-5h2l1-7 3-1 2-7h2l1-3 3-8h2l1-3 3-7h2l1-3 3-7h2v-2l4-8h2l1-3h2v-3h2v-3h2l-2-10-11-1-6 4h-2v3h-2v3h-2v2l-2 4h-2v4h-2v3h-2v4h-2v3h-2v3l-4-1 2-3 3-6h2v-3h2v-4h2v-3h2l1-5 3-1v-3h2v-2q9-7 21-4"/><path fill="#1d3f7a" d="m1723 225 1 3h2l3 9 8-3h5l2 1 4 2-3 2c-6 3-6 3-11 8l6-1v-2l4-2 2-1 4-1-5 25h-2l1 2 1 9-2 1v-4h-3q-2-4-2-9h-2l-2-7h-3v-3h-2v-4h-2v-4h-2v-3h-2v-4h-2v-4h-2v-5h-2l1-2 2 1 2 7h2z"/><path fill="#c5cedd" d="M1434 133q4 6 4 13l-1 3h-2v3h-2v2l-4 7-4 7h-2v3h-2v3h-2l-2 6h-2v3h-2v3h-2v3h-2v4h-2v2l-4 7-1 2-1 2h-2l-1 2-3 8 14-2 22-4 6-1 17-3 38-1h23v1h-2l-18 1h-7q-21 0-42 4h-2l-8 2-22 3-4 1-7 1-4 1h-9l2-1v-3h2v-5h2v-3h2v-3h2v-4h2v-3h2v-3h2v-4h2v-3h2v-2l2-5h2v-3h2l2-6h2v-4h2v-3h2v-3h2v-3h2l2-6h2v-3h2v-11h-2v-2h-8l-3 1-2 3h-2l-1 3-3 1-1 2h-3v-3h2v-2l1-2 3-1v-2q9-6 19-3"/><path fill="#f2ecef" d="m1724 225 21 2h2l9 3v8l-1 4v6l-3 17-2 7v3l-2 1v-2h-2q-2-9 1-19l2-10 1-5-2 1-2 1-2 1-4 1v2l-6 1q4-6 12-10-4-2-9-2l-5 3-4-1q-2-4-2-9h-2z"/><path fill="#edf0f4" d="m950 428 4 1q-7 6-15 9l-7 3-13 5-2 1-16 4-5 1c1 9 1 9 5 18h1l1 6 3 5v3h2q2 2 2 5h2l5 5 3 1v2l9 1v2l24-6h3v-2l2-1 9-5 12-5v2h-2l-1 3-5 3-3 1-4 1-3 2-9 4-2 1q-14 6-28 2l-5-2v-2l-4-1v-2h-2v-2h-2v-2h-2l-2-6h-2v-4h-2v-4h-3v-3h-2l-3-14v-8q4-2 9-2l8-3 4-1c10-2 29-9 36-16"/><path fill="#c7cfdd" d="m1641 321-4 7q-7 4-14 4v2l-4 1v2l-4 1v2h-2v2h-2v2l-5 3-1 2h-2v2h-2l-1 4h-2v2h-3v2l-4 1v2l-4 4-2 1-5 3-2 4q-2-4 1-9l1-3 1-3h2v-4h2v-5h2v-2l2-7 2-13h-2v-2q-8 0-15 4l-2-1q3-6 6-6c10 0 10 0 14 2v2h2l2 8h-2v6h-2v4h-2v5h-2v3h10v-2h2v-2h2v-2h2v-2l4-1v-2h2v-2h2v-2l4-1v-2l6-4 2-2c14-8 14-8 17-8m-55 33v5h-2v5l2 1v-2h2v-3l2-1-2-5z"/><path fill="#d4dbe5" d="M1815 162h3q9 0 17 4v2h2v2l4 1v2h2l2 7h2q3 4 2 7v15h-1l-1 8h-2v5h-2v4h-2v3h-2v2h-2l-1 2q-2 6-8 9v-3h2v-2h2v-2h2v-3h2v-2h2v-3h2v-4h2v-4h2v-7h2v-21h-2l-2-8h-2v-2h-2v-2h-2v-2l-2-1h-2l-3-1-4-2q-16-4-31 3l-6 4h-2v2h-2l-3 3-1 2h-2v2l-3 1-2-7 2-3h7l3-1 1-3 6-2 2-1q11-5 21-4"/><path fill="#c3ccdb" d="m1526 419 3 1-2 7h-2v5h-2l-1-4h-3l-1 2-1 3-6 1v2h-2v2l-4 3q-4 2-6 5-4 4-7 3l-2 4-2-1v2l-4 1v2l-4 1v2l-4 1v2l-8 3-1 3-6 3-4 2-5 2v2l-29 14-2 1-18 4-1-2 3-1 23-8 6-1v-2l9-4 3-2 3-1 2-1 4-1v-2l6-2v-2l8-3v-2c5-4 5-4 8-4v-2l4-1v-2l6-2v-2h2v-2l4-1v-2h2v-2l4-1v-2l7-2v-2l4-1v-2h2v-2l4-1v-3l4-1v-2h2v-2l4-1z"/><path fill="#bcc6d7" d="M1240 425v2h-2v2h-2v2l-4 1v2l-4 1v2l-4 1v2h-2v2l-5 4-7 5h-2v2l-4 3-7 5-3 1-5 4c-9 6-9 6-14 6v2l-7 4-2 1-2 1-2 1q-5 2-11 2h-4l-6-2v-3h-2v-12q0-7 3-14l1-6h3l-1 5v3l-2 4v7l-1 3v10h2v2q11 1 21-5l6-2 4-3 5-3 15-9 6-3v-2c5-4 5-4 8-4v-2c5-4 5-4 8-4v-2l6-2v-2h2v-2l4-1v-2l4-4 3-2z"/><path fill="#e1e6ed" d="M1918 312v2l-4-1h-3l-4-2c-12-4-27 0-38 4l-7 4-5 3-8 4-4 1v2l-4 1v2l-4 1v2l-4 1v2h-2v2l-4 4h-2v2h-2v2h-2v2h-2v2h-2v2h-2v3l-4 4h-2v2h-2v3h-2v2h-2l-2 5h-2v2h-3l1-5h3l1-2 3-5h2v-2h2l1-2 3-5h2v-2h2l2-5h2l1-2 3-1v-2h2v-2h2v-2h2v-2l4-1v-2h2v-2h2l1-2h3v-2l4-1v-2l2-1 8-5c19-11 42-17 62-6"/><path fill="#a62234" d="M1831 178q4 1 5 4l1 2-3 1-7 4-4 1v2l-3 1-10 5c-12 8-12 8-20 7l-2-1v-2l2-1 30-17 10-5z"/><path fill="#ced5e1" d="M1428 230h-2v2h-2l-24 5-7 2c-9 1-9 1-16 7l-3 6h-2v4h-2v2l-4 9h-2v4h-2v3h-2v4h-2v4h-2v4h-2v2l-2 6h-2v3h-2v2l-4 8-1 2-1 2-1-4h2v-5h2v-3h2v-2l3-6v-2l1-2h2v-4h2v-2l2-6h2v-4h2l1-3 3-8h2v-4h2l2-7h2v-4h2l1-5 23-6 4-1 8-1 6-2h3l2-1z"/><path fill="#aab7cc" d="M1828 369h2l-4 7h-2v2h-2l-1 2-3 6h-2v2h-2v3h-2v3h-2l-2 5h-2v3h-2v2l-2 5h-2v3h-2v4h-2v4h-2v4h-2v5h-2v2l-1 4v3l-3 9h2v3q7-1 13-5l9-4q-3 6-9 8l-5 2-2 1h-8l-1-4v-12h2v-6h2v-2l2-7h2v-4h2v-4h2v-4h2v-3h2v-3h2v-3h2v-3h2v-3h2v-3h2v-3h2v-3h2v-2h2v-3h2v-2h2v-3h2v-2l5-2z"/><path fill="#8a9cb9" d="M1434 133q4 6 4 13l-1 3h-2v3h-2v2l-4 7-4 7h-2v3h-2v3h-2l-2 6h-2v3h-2v3h-2v3h-2v4h-3v-3h2v-3h2v-2l2-5h2v-3h2l2-6h2v-4h2v-3h2v-3h2v-3h2l2-6h2v-3h2v-11h-2v-2h-8l-3 1-2 3h-2l-1 3-3 1-1 2h-3v-3h2v-2l1-2 3-1v-2q9-6 19-3"/><path fill="#0b2c66" d="M1733 257q4 4 3 7h2l2 9h3l1 3-1-11h2l1 9h2l2 12 4-1v-2l5-4 2 1-1 8h-2v2l-4 1v2h-2v2c-7-1-7-1-9-3l-1-5-1-5v-7h-2v-4h-2v-6h-2q-2-3-2-8"/><path fill="#980a1f" d="m1753 260 1 3h2l7 3 2-2v12l-9 7h-2v2l-4 1q-3-5-1-11l1-6 1-4v-2h2z"/><path fill="#9e1226" d="m1767 186 5 8h4l4-7h2l-2 18h-2v6h-5l-3-1q-3 1-5-2v-9l1-3 1-5v-3z"/><path fill="#d5dbe5" d="M1410 374h3v2h-2v2h-2l-1 3-3 1-2 5h-2v3l-5 5-3 6-2 2q-4 4-5 9h8l6-3 6-2 11-7 4-1-1 3h-3l-1 3-5 3-3 1-3 1-3 2q-11 6-23 7l2-8h2v-4h2v-3h2l2-6h2v-3h2v-3h2v-2h3l1-6h2v-2h2v-3l5-1v-2h2zm-28 40 1 3Z"/><path fill="#c2ccdb" d="m201 213 2 1-3 2-8 8h-2v2l-4 1v2l-4 1v2h-2v2l-3 1-4 4h-2v2h-2v2h-2v2l-4 4h-2v2h-2v3h-2v2h-2v3l-3 3-1 3-2 2h-3v3h-2v4h-2v4h-2v2l-1 4-1 9v8h-1q-2-14 2-26h2l1-2 8-14h2v-3h2l2-5h2l2-5h2v-2h2v-2c5-5 5-5 8-5v-2h2v-2h2v-2h2v-2l4-1v-2l4-1v-2h2v-2l6-2v-2z"/><path fill="#b13344" d="m1722 168 2 2 6 5 2 2v2h2l4 5q3 5 8 9l2 2v3l-11-1-3-5-2-2-7-9-3-3-2-2v-2l-3-1z"/><path fill="#aa1d2f" d="M1754 229h5l-2 14v8l9 2 1 4 3-4v5h-2v2q1 7-2 15h-1l-1-8-12-4 1-10v-6l1-3 1-3 1-6v-5z"/><path fill="#e5e9ef" d="m315 160-9 4-2 1-6 2-10 5-13 5q-6 1-13 6l-5 2-3 1-6 2v2l-6 1v2l-4 2h-2l-4 1-1 3-5 2q-6 2-10 6h-3l-1 3-5 2h-2l-2 1v-2l3-2 4-2 2-1 11-7 20-10 7-4 22-10 2-1 8-2v-2l7-3 7-3h2l5-3z"/><path fill="#183970" d="M1822 230q6 1 6 4l-2 5-6 3-1 3-1 2-4 1v2l-4 3-2 2-4 1v2h-2v2l-4 1v2l-4 1v2l-4 1v2l-5 2v-2h2v-2h2v-2l4-1v-2l4-1v-2h2v-2l4-3 2-2 4-1v-2l4-1-1-5h-2q2-6 8-9z"/><path fill="#e5e9ef" d="m1472 442-1 3h-3v2h-2l-1 3q-3 3-7 2l-1 3-4 2-3 1-4 1v2l-3 1-12 6-6 3-4 2q-19 10-38 6-4-1-6-4l-1-2 2 1c11 5 24 2 36-1l23-11 3-2 17-10 4-1 1-2 4-3 2-1z"/><path fill="#d9dfe8" d="m1907 327 3 5v10h-2l-3-11h-2v-2c-13-3-25 4-36 10l-6 3v2l-6 2v2h-2v2l-4 1v2h-2v2q-3 4-6 3v2h-2l-1 2q-1 4-6 7h-2v-2h2v-2h2v-2h2v-2h2v-2h2v-2l4-3 2-1v-2l4-1v-2h2v-2h2v-2l4-1v-2l4-1v-2l8-4 2-1c12-5 22-10 35-6"/><path fill="#d7d2db" d="m1831 176-1 4-4 2-15 8c-20 12-20 12-23 12v-2h-2v-7l1-1v-8l-2-1 6-3-3 18 19-10 12-7c9-5 9-5 12-5"/><path fill="#d7dde7" d="m1019 220-1 6h-2v3h-2v3h-2v4h-2l-2 6h-2v3h-2v3h-2v3h-2v2h-2v3h-2v3h-2l-2 5h-2v3h-2v3h-2v2h-2l-2 5h-2v3h-2v2h-2v3h-2v2h-2v3l-5 1 4-7h2v-2h2l2-5h2v-3h2v-2h2l1-2 3-6h2v-3h2v-2h2v-3h2v-3h2v-2h2v-3h2v-3h2v-3h2v-3h2v-2h2v-2l4-8h2v-3h2zm718 99v3h2v9q1 4-2 7h-2v3h-2v4h-2l-1 2-5 9-1-4h2v-3h2v-3h2l1-3 3-8h2v-3h2l-2-10-11-1-6 4h-2v3h-2v3h-2v2l-2 4h-2v4h-2v3h-2v4h-2v3h-2v3l-4-1 2-3 3-6h2v-3h2v-4h2v-3h2l1-5 3-1v-3h2v-2q9-7 21-4"/><path fill="#c8d1de" d="M1912 355q3 3 2 7h2v3h-2v4h-2l1-8h-2v-3h-2v-2l-15 2v2h-2l-1 5h-3v2h-2v3h-2v2h-2v3h-2l-3 4-1 2h-2v2h-2v3h-2v2h-2v2h-2v3h-2v2h-2v2l-5 2v-2h2l2-5h2v-2h2v-2h2v-2h2v-3h2v-3l4-4h2v-2h2v-2h2v-2h2v-2h2v-3h2l1-3 3-4h2l1-2 4-3c10 0 10 0 14 2"/><path fill="#e8ecf1" d="m1955 419 2 1-6 3v2l-8 3v2l-9 4-2 1-13 6-2 1-10 2h-3c-9 0-9 0-14-2q-2-5-1-11v-7l2-4q2 6 1 12l2 9c16 4 32-5 45-12l5-2v-2l2-1 6-4z"/><path fill="#eaedf2" d="M1761 158v2l2 1 9 7 1 6h-2v-4h-2v-2h-2v-3l-4-1v-2l-2-1-6-2q-17-8-34 0v2l-4 1v2h-2v2h-2v3h-3v-3h2l2-5h2v-2l6-2v-2c13-5 28-7 39 3"/><path fill="#ebeef3" d="M1512 220v1h-2l-11 1h-2l-42 5-15 3-6 1-2 1h-6v-2h2l14-3q35-8 70-7"/><path fill="#f1f4f7" d="M1771 397h2q-1 6-5 8h-2v2h-2l-3 3-1 2h-2v3l-4 1v2l-4 1v2l-9 4v2h-2v2l-4 1v2l-4 1v2l-4 1v2l-4 1v2h-2l-3 3-1 2q-4 4-11 4l2-1v-2l8-3v-2l4-1v-2l4-1v-2c5-4 5-4 8-4v-2l4-3 7-6 4-1v-2l4-1v-2h2v-2h2v-2l4-1v-2h2v-2h2v-2l4-1v-2h2v-2h2z"/><path fill="#aebbcf" d="m734 416 2 1-5 5-3 3-4 2v2h-2v2l-4 4h-2v2l-2 8h-2v3q0 5-3 10l-1 6h-2v7h-2v5h-2q0-10 4-18l1-6h2v-2l2-9 2-5 1-3 3-1v-2h2v-2l4-1v-2h2v-2h2v-2h2v-2h2v-2z"/><path fill="#082a65" d="m1745 251 1 8-1 3v3h-2l1 2 1 9-2 1v-4h-3q-2-4-2-9h-2l-2-4-1-2-1-5h8q3 1 5-2"/><path fill="#ced6e2" d="m1416 423 3 1-12 6-2 1q-11 4-23 5l-4 1-4-1-2 15h-2v4l1 2 1 3v7h2v3h2v3h-2v-2h-3q-2-7-2-16v-3q-1-9 3-17 4-2 7-1 19-2 37-11"/><path fill="#7a8eb0" d="M1708 169h3l-1 8-3 1 4 36-3-3v-4h-2l-2-4-1-6-1-1v-8l1-5 1-6h2v-6h2z"/><path fill="#adb9ce" d="m1732 338 2 1-4 7h-2v3h-2v3h-2v2q-1 9-6 14h-2v2l-4 7-1 3-1 2h-2v2l-2 6h-2v4h-2v3h-2v2h-3v-2h2l1-7 3-1 2-7h2l1-3 3-8h2l1-3 3-7h2l1-3 3-7h2v-2l4-8h2z"/><path fill="#325083" d="m1248 525 1 3-1 1-2 7v4l-1 3h-2v3l-1 5-1 5v5h-2v7l-1 3v10l-1 8v17h2l2 7-4-3-1-8v-5h-2v-11l1-5v-7l3-14 2-12h2v-3l2-10 2-6z"/><path fill="#f0f2f6" d="M1689 329h1q0 6-3 11-4 4-10 3l-5-2-3-8q-11 1-23 7l-5 1v2l-6 3-2-1 7-4v-2q14-8 30-8l4 2v7l9 1v-2h2l1-3z"/><path fill="#ebeef3" d="m473 109 4 1Zm0 1v2l-3 1-26 7-3 1-10 3-17 2 16-6 4-1 4-1h2c27-8 27-8 33-8m-61 16h2l-3 2-3-1z"/><path fill="#1b285c" d="M1786 180q0 4-4 7h-2l-1 2-3 6-5-1q-4-4-3-10l1-3 2 1h7q3-2 8-2"/><path fill="#eef0f4" d="M1918 312v2l-4-1h-3l-4-2c-14-5-31 1-44 6h-4c19-10 39-16 59-5"/><path fill="#f2f4f7" d="M1670 311h2q6-1 10 2v2h2q4 2 6 7v2l-3-1v-2h-2v-3l-4-1v-2q-18-1-35 5l-3 1-2-1c10-6 17-9 29-9"/><path fill="#e6eaf0" d="M1353 421h1v5l-1 3v3l-2 1q-3 11-2 21v4q-1 10 3 19l1 5-2-3-3-3h-1c-4-23-4-23-1-31l1-9q0-4 3-7l2-4z"/><path fill="#d2d9e4" d="m1679 386 1 4h-2v4h-2v5h-2v4h-2l-2 9h-2v5h-2v2l-2 9-1 3-2 3-1 7-4 1 1-6h2v-7h1l1-6h1l3-10h2v-4h2v-4h2v-5h2v-2l4-8 1-2z"/><path fill="#a21327" d="m1751 263 2 4-1 1v6l2-2 2 1 7 1 2-1v3l-4 4-3 2-4 1v2l-4 1q-3-5-1-11l1-6 1-4z"/><path fill="#cdd5e1" d="m1450 475 1 2h-2l-1 3-5 3-4 1-3 2-3 2-10 4-2 1-18 4-1-2 3-1 23-8 6-1v-2z"/><path fill="#971227" d="M1831 178q4 1 5 4l1 2-3 1-7 4q-6 3-13 1 3-6 9-8l7-3z"/><path fill="#a32a3d" d="m1722 168 2 2 6 5 5 8v2h-7q-5-4-8-11l-3-1z"/><path fill="#ebeff3" d="m932 379-1 4-4 3-8 7-5 1v2h-2v2h-2v2l-4 1v2h-2v2h-2v2h-2v2h-2v3h-2v2h-2v2h-3v-2h2v-2h2v-2h2l1-3 3-4h2v-2h2l1-3 5-3 2-2 6-5 2-3 5-1v-2h2v-2z"/><path fill="#e3e8ee" d="m1791 425 1 4h-2v2l-1 4v3l-3 9h2v3q7-1 13-5l9-4q-3 6-9 8l-5 2-2 1h-8l-1-4v-12h2v-6h2v-2z"/><path fill="#8d253d" d="m1746 235 2 2-3 2-12 8q-3-4-3-9 7-6 16-3"/><path fill="#9a0b1f" d="m1757 241 2 1v2l5 2v2q3 0 5-4c0 12 0 12-2 17h-1v-8l-9-2-1 5h-1l1-9z"/><path fill="#f1f3f6" d="m1797 164 2 1-7 6-2 1-4 1v2h-2l-3 3-1 2h-2v2l-3 1-2-7 2-3h7l3-1 1-3 6-2 3-2z"/><path fill="#980c21" d="M1774 198h4v13h-5l-3-1q-3 1-5-2v-5l8 1v-3z"/><path fill="#dce2ea" d="M625 97v3l-10 2h-2l-22 4h-8l10-4h2l5-1 7-2 4-1h2z"/><path fill="#3d5a8a" d="M295 645h2l-1 18h-2v19q0 17 7 34h-2v-3h-2v-5h-2v-3l-2-5v-37z"/><path fill="#e4e9ef" d="m1421 399-1 3h-3l-1 3-11 6-3 1q-9 5-19 5v-6l1-2h2v3h8l6-3 6-2 11-7z"/><path fill="#1b275b" d="m1833 214 1 3-1 1q-3 2-3 6h3l-2 5h-2l-2 4-5-2-6 6-2-1 2-2 13-16-2-1h2l3-1z"/><path fill="#335182" d="M1836 172h2v2h2v2h2q3 3 2 8h2v21h-2v7h-2v-4l1-3 1-4v-7l-4 1v-2l1-9v-6h-2v-2h-2z"/><path fill="#d8dee8" d="M1815 162h3q9 0 17 4v3l-9-3-12-1h-2l-14 2 3-4q7-2 14-1"/><path fill="#d1d8e4" d="m1818 243 2 1-4 4h-2v2l-4 3-2 2-4 1v2h-2v2l-4 1v2l-4 1v2l-4 1v2l-5 2v-2h2v-2h2v-2l4-1v-2l4-1v-2h2v-2l4-3 2-2 4-1v-2l4-1v-2h2v-2z"/><path fill="#0a2a64" d="M1837 173v3h2v2h2l1 15-4-7q-3-7-11-12c6-2 6-2 10-1"/><path fill="#e6e4e9" d="M1773 237v10l-1 14 2 1-1 4v3l-6 5 1-16h2v-2q0-10 3-19"/><path fill="#d5d5df" d="m1791 180-3 18 6-3 9-3v3l-6 4-2 1-7 2v-2h-2v-7l1-1v-8l-2-1z"/><path fill="#e2e6ed" d="m1161 392 3 3v2h-2v-2h-9l-7 1v2h-2l-1 5h-2v2h-2v3h-2v2h-2v2h-3v2h-2l6-9h2v-2h2v-3h2l1-2q7-9 18-6"/><path fill="#3c598a" d="M1679 315h2v2l4 1v3h2l3 3q0 8-5 15h-2v2l-9-1v-7l5 5 2-1 3 1 2-16h-2z"/><path fill="#3c598b" d="m1721 181 12 13v1l-20-2v7h-1v-8h3l5-3 5-1-3-2zm-1 5 2 1Z"/><path fill="#eaedf2" d="m1783 271 2 1-5 5-10 7c-10 8-10 8-13 8v2l-5 3-4-2h4v-2h2v-2l4-1v-2l7-2v-2q3-4 6-3l1-2 4-4h3v-2z"/><path fill="#a9b6cb" d="M1696 355h2q-1 7-5 14h-2v4h-3v3l-3 8-5 2q2-7 6-12l2-5h2v-2l4-9h2z"/><path fill="#f0f3f6" d="M1912 355q3 3 2 7h2v3h-2v4h-2l1-8h-2v-3h-2v-2l-15 2v2h-2v2h-2v2h-3l4-6h2l1-2 4-3c10 0 10 0 14 2"/><path fill="#c9d1de" d="m1714 327 3 1h-2v3h-2v2l-2 4h-2v4h-2v3h-2v4h-2v3h-2v3l-4-1 2-3 3-6h2v-3h2v-4h2v-3h2v-2q1-3 4-5"/><path fill="#fafafb" d="M1835 168h2v2l4 1v2h2l2 7h2q3 4 2 7v15l-3-11v-7h-2l-2-8h-2v-2h-2v-2h-2v-2l-2-1z"/><path fill="#2c4b7f" d="m678 488 1 4-1 1v5l-2 5q-3 20-2 40l-2-1v-33l1-1v-4l4-13z"/><path fill="#e6e0e6" d="M1717 174h3q4 3 3 6l2 1 6 7 2 2 2 2-1 4-4-1 2-1-6-7-2-3-2-2-2-2-3-2z"/><path fill="#d3dae5" d="m1952 442 2 1-3 1v2l-8 4-2 2c-12 6-12 6-17 4l9-5 3-1 14-7z"/><path fill="#8b9cb9" d="m546 482 1 8v7l-1 4v9h2v5h2l1 2 3 3v2l5 2h-5l-3-1v-2h-2v-3h-2q-2-5-2-11v-13z"/><path fill="#dde3eb" d="m1360 488 6 2v2q12 4 24 4h12v1q-20 5-38-4v-2l-4-1z"/><path fill="#a91a2d" d="m1802 199 3 1h2q-6 6-15 5l-4-1v-2q6-5 14-3"/><path fill="#be9dac" d="M1753 250h1l-2 18-1 2-1 5-2 1v-2h-2q-3-10 1-19l1 13z"/><path fill="#1c3e78" d="m1809 240 2 1-1 2h2v2l3 1h-2v2l-4 1v2l-5 3 1-2v-2l-1-1-1-6 2-1z"/><path fill="#eceff3" d="M739 77v1l-13 2-4 1-6 1-4 1-8-1v-1c27-6 27-6 35-4"/><path fill="#dce1ea" d="M1704 177h2v29l-2-1-1-4-1-5v-8l1-5z"/><path fill="#f0f2f6" d="M1767 424v5l-1 3-1 7h-2v-3l-2-1-4-3 2-1 1-3 5-1v-2z"/><path fill="#0b2a62" d="m1720 162 5 2q-1 5-6 6l-1 3-4-2v-4h2l1-2z"/><path fill="#bcc6d7" d="m1814 355 1 2-4 4h-2v2h-2v3h-2v2h-2l-2 5h-2v2h-3l1-5h3l1-2 3-5h2v-2h2l1-2q1-3 5-4"/><path fill="#a02235" d="m1790 241 10 1 1 4 2 1h-2v2l-4 1-1-2q-1-3-5-4z"/><path fill="#12275d" d="M1713 201q4 4 4 11h-3v2h-2q-2-3-2-8v-4z"/><path fill="#c6cedc" d="m1658 441 1 10-1 3v3h2v6h2l-1 4h-2l-2-5v-9h-2l2-11z"/><path fill="#bec8d8" d="M1659 313h18l1 2h-3q-15-1-29 5l-3 1-2-1 5-3 3-2q4-2 10-2"/><path fill="#5b749d" d="M1733 257q4 4 3 7h2l2 9h2v4l3 10 1 7q-4-2-3-4l-1-3-1-5v-7h-2v-4h-2v-6h-2q-2-3-2-8"/><path fill="#eff2f5" d="m145 266 1 4h-2v4h-2v4h-2v2l-1 4-1 9v8h-1q-2-14 2-26h2l1-3z"/><path fill="#294a82" d="m1733 156-2 1-4 4 5 1q-4 4-7 3l-5-2-3 1v-2l4-1v-2l4-2 2-1z"/><path fill="#496491" d="m1723 225 1 3h2l1 7h-2q0 6 2 11h-2v-3h-2v-4h-2v-4h-2v-5h-2l1-2 2 1 2 7h2z"/><path fill="#204179" d="m1744 285 1 2 2 1 2-1h2l5 4h-2v2h-2v2h-5l-1-4-1-2z"/><path fill="#e7eaf0" d="m1722 155 5 1-6 3v2l-4 1v2h-2v2h-2v3h-3v-3h2l2-5h2v-2l6-2z"/><path fill="#556f9a" d="M1849 326q-2 5-5 6l-6 2v2l-4 1v2h-2v2h-2v2h-2v2l-3 1v-2h2l2-4h2v-2h2v-2l4-1v-2l4-1v-2l4-1v-2z"/><path fill="#990b20" d="M1762 228h6l-2 4h-2v3h-3l-1 4h-1v-8q-1-4 3-3"/><path fill="#9e1a2d" d="m1808 195 3 1-2 4h-12c3-6 5-5 11-5"/><path fill="#b9c4d5" d="M1889 308h13q8 0 16 4v2l-4-1h-3l-4-2-11-2h-7z"/><path fill="#173974" d="M1743 265h2l1 9h2v7l-3-1-2 2-1-3v-6l2 3z"/><path fill="#425e8d" d="M1840 214h2v2h-2v4h-2v3h-2v2h-2v3h-2v2h-2v2l-2-1 1-2h2v-2l1-3v-3l1-2 2-1v2h2v-2h2z"/><path fill="#ae3c4c" d="m1811 232 5 2-2 3h-9l-20-3v-1h9l5 1h8z"/><path fill="#d9dfe8" d="M1706 207h2c3 7 3 7 3 11h2l1 6-4-1q-2-4-2-9h-2z"/><path fill="#4f6a98" d="m1641 321-4 7-3 1-3 1-2 1-2-1q5-8 14-9"/><path fill="#f8f4f5" d="M1750 252h1q1 10-3 19h-1q-1-10 3-19"/><path fill="#d69ea6" d="M1773 237v14l-1 3v5l-4 6v-7h2v-2q0-10 3-19"/><path fill="#5c759e" d="M1706 187h1v2l1 9 1 3v4l1 2 1 7-3-3v-4h-2z"/><path fill="#c7d0de" d="m1274 268-8 3h-2q-6 3-13 2l3-3c15-4 15-4 20-2"/><path fill="#182b61" d="m1801 247 7 1-1 1-4 6-5-1-1-4 4-1z"/><path fill="#dbcbd3" d="m1746 237 2 1v3l-8 3v2l-6 1q1-5 7-7l3-2z"/><path fill="#788dae" d="M1776 245h5l2 5-5-2-3 18-3 5z"/><path fill="#d9dfe8" d="m1527 399-2 4-4 1v2h-2v2l-4 1v2q-1 4-6 5l1-3 2-2 2-2 7-7 2-2z"/><path fill="#e4e8ef" d="M1840 216h3v3h-2v3h-2v2h-2l-1 2q-2 6-8 9v-3h2v-2h2v-2h2v-3h2v-2h2v-3h2z"/><path fill="#2f4e82" d="M1142 446h1l-1 9q-3 7-3 14v9h-1v-22h2v-3z"/><path fill="#072a66" d="m1719 224 4 3 1 9h-2q-2-3-2-7h-2z"/><path fill="#a22437" d="m1713 200 20 2v1l-6 1h-9v2l-3-1z"/><path fill="#697fa5" d="m1764 164 3 1v3h2v2h2v4h2l1 2v2l1 2 3 3-4 1v-4l-3-1-2-5v-3l-1-2h-2z"/><path fill="#d1d8e4" d="m1824 343 3 1h-2v2h-2v2h-2v2h-2v2h-2v2l-5 2v-2h2v-2h2l2-5h2l1-2z"/><path fill="#8fa0bc" d="m1650 334 2 1-5 2v2l-6 2v2l-6 3-2-1 7-4v-2l5-3 3-1z"/><path fill="#122f69" d="m1725 235 6 4-1 4-4 1-2-6z"/><path fill="#4a6594" d="m1407 149 2 1-2 5-1 3q-1 4-5 5l-2 2v-4h2v-3h2v-3h2v-3h2z"/><path fill="#425e8d" d="M1256 499v11h-3l-1 9-1 3-2 1q0-9 4-16l2-6z"/><path fill="#bac5d6" d="M1828 369h2l-4 7h-2v2h-2l-1 2-3 4 1-6h2v-3h2v-2l5-2z"/><path fill="#c16a76" d="M1754 229h5q0 10-4 18h-1v-5l1-1 1-6v-5z"/><path fill="#edf0f4" d="M1712 224h3l2 4v8l-4-2 1-6h-2z"/><path fill="#eaedf2" d="M1835 168h2v2l4 1v2h2l2 4v2l1 5h-2l-2-8h-2v-2h-2v-2h-2v-2l-2-1z"/><path fill="#556e98" d="M1844 184h2v21h-2v7h-2v-4l1-3 1-4z"/><path fill="#b0bccf" d="M1696 355h2q-1 7-5 14h-3l4-11h2z"/><path fill="#dbe0e9" d="m1630 346 3 1-4 2v2l-6 2v2h-2v2q-4 4-7 3v-2c5-4 5-4 8-4v-2h2v-2l6-2z"/><path fill="#345386" d="m1711 212 1 2h2l3 14q-3-1-4-5v-5h-2zm3 0h3l1 5h-2z"/><path fill="#d2d9e4" d="M1866 420h1v22h-2l-1-8v-3q-1-5 2-11"/><path fill="#a21e30" d="m1742 234 2 1 4 2-5 3v-2l-3-1-1 1-3 1v-2l-2-1q3-2 8-2"/><path fill="#eae6ea" d="m1812 186 1 3-4 3-2 1-4 1-2-1q4-5 11-7"/><path fill="#dfc8cf" d="M1717 174h3q4 3 3 6l4 2v3l-10-7z"/><path fill="#bcc6d7" d="m1818 243 2 1-4 4h-2v2l-7 4-2-1 4-2v-2l4-1v-2h2v-2z"/><path fill="#9d1428" d="m1731 179 3 4 1 2h-7l-1-5z"/><path fill="#f0f2f5" d="m1239 607 3 1v3h2l3 1h3l4 2v2l-6-1-4-1q-3-1-5-4z"/><path fill="#eaeef3" d="m1728 455 2 1-3 1v2l-5 4-3 2-3 1-3-1 5-2v-2l4-1v-2z"/><path fill="#3e5a89" d="m1674 333 5 5 2-1 2 1v3l-9-1z"/><path fill="#072a66" d="m1745 279 1 2h2v12h-1l-1-3-2-5v-5z"/><path fill="#9aa9c2" d="m1763 177 3 1h-2v6l-1 4-1 7-4-1h2v-2z"/><path fill="#cfd7e3" d="M1362 223v2l-7 3h-2c-7 2-7 2-10 1 14-6 14-6 19-6"/><path fill="#5e769e" d="m1732 338 2 1-4 7h-2v3h-2v3h-2v3l-2-1 1-3h2v-2l4-8h2z"/><path fill="#9dacc4" d="m1791 180-1 9v5l-1 2v2l-2 1v-15l-2-1z"/><path fill="#0f3373" d="M1738 267h3l1 2 3 1v6l-2 1v-4h-3z"/><path fill="#0a2d6a" d="m1778 247 4 2-1 2-3 7h-1v-8z"/><path fill="#d2cad4" d="M1749 245h1v6h2l2-4-2 11h-1l-1-5-2 2z"/><path fill="#062863" d="m1676 333 8 1v4l-6 1z"/><path fill="#f5f7f9" d="m1740 284 3 1v3q1 5 4 6l3 2h-6v-2h-2v-5h-2z"/><path fill="#adbace" d="M1681 435h2v5l-1 3-1 3v10l-2-1v-9l1-4z"/><path fill="#d4dbe5" d="M1689 329h1q0 6-3 11l-4 2v-3h2l1-3z"/><path fill="#2e2654" d="m1759 279 2 1-4 4-2 2-4 2-2-1-1-7q3 2 2 6l4-1v-2z"/><path fill="#cad2df" d="m1783 271 2 1-6 5-2 2-4 1-2-1c5-4 5-4 8-4v-2z"/><path fill="#edf0f4" d="m1213 267-5 3-3 1-8 1q7-7 16-5"/><path fill="#f6f5f7" d="M1773 251h1v11l-3-1v-8z"/><path fill="#e4e9ef" d="m1464 470-5 3-3 2-4 1v2l-3 1v-2h2v-2l4-1v-2c6-3 6-3 9-2"/><path fill="#e6eaf0" d="m1664 332-6 2-3 2-8 2q7-7 17-6"/><path fill="#d4dae5" d="M1335 269h2l-1 4-1 3-3 6h-3l2-6h2v-2z"/><path fill="#072c6d" d="M1834 214h2l1 6-3-1-1 5h-3z"/><path fill="#6c83a7" d="M1741 277q6 8 5 17-4-2-3-4l-1-3-1-5z"/><path fill="#26467d" d="M1790 182h1v6h2l1 4-5 1z"/><path fill="#eff2f5" d="m1771 280 2 1-4 3-2 2q-2 3-6 3l2-3h2v-2z"/><path fill="#3b598a" d="m1723 225 1 3h2l1 7h-2l-1 3-2-2h2z"/><path fill="#e1e1e7" d="M1786 193h1v6l7-2v3l-6 2v-2h-2z"/><path fill="#2c4b80" d="m1715 164 2 1-1 2h-2l1 5-5 4 1-7h2v-3h2z"/><path fill="#203f73" d="m1792 261 3 1h-2v2l-4 1v2h-2v2l-2-1 1-4 6-1z"/><path fill="#a22b3e" d="m1798 242 3 2v2l2 1h-2v2l-4 1-2-3 4-1z"/><path fill="#a31629" d="M1745 193v3h-7v-3z"/><path fill="#99a9c2" d="m1831 444 1 2q-3 6-7 6h-2v-2h2v-2z"/><path fill="#b0bccf" d="m1704 345 1 3h-2v3h-2v3l-4-1 4-6h3z"/><path fill="#512046" d="M1717 212q4 1 4 5l1 2v5q-5-5-5-12"/><path fill="#546e9a" d="m1819 204 2 1v4h-7l3-4z"/><path fill="#b0bcd0" d="m1814 355 1 2-4 4h-2v2h-3v-2h2l1-2q1-3 5-4"/><path fill="#adb9ce" d="m1868 335 2 1q-3 6-10 5l2-1v-2z"/><path fill="#3e5b8d" d="M1849 326q-1 4-6 7h-2v-3l4-1v-2z"/><path fill="#d7dde7" d="m1641 321-1 3-11 4q5-6 12-7"/><path fill="#d8dee8" d="M1681 316h5c4 5 4 5 4 8l-3-1v-2h-2v-3z"/><path fill="#355487" d="M1743 265h2l1 9h2v3h-3v-3z"/><path fill="#b23f4f" d="M1794 200v2l2 1v2l-8-1v-2z"/><path fill="#a82638" d="M1807 200c-6 5-6 5-11 5v-2q6-3 11-3"/><path fill="#cb848e" d="m1735 193 3 2 7 1 1-2 2 1v3h-8l-4-3z"/><path fill="#c3abb9" d="m1831 176-1 4-5 2 1-3-2-1q3-2 7-2"/><path fill="#ebeef2" d="M1735 153v2l-10 1v-2q5-3 10-1"/><path fill="#f1f3f6" d="m1136 347-4 2-2 1h-6l5-2 3-1z"/><path fill="#eff2f5" d="M1840 216h3v3h-2v3h-2v2h-2l-1 2v-3h2v-3h2z"/><path fill="#aa2839" d="m1823 182 2 1c-4 5-4 5-8 5h-2z"/><path fill="#e3dfe5" d="M1826 178v3q-3 4-6 3l-1-3z"/><path fill="#acb9ce" d="M1810 441q-1 5-7 7l-2-1 3-3 2-2z"/><path fill="#ccd4e1" d="M1858 341h5l-2 1v2l-7 2v-2l4-1z"/><path fill="#496491" d="m1733 321 4 3 1 8h-2l-1-9h-2z"/><path fill="#8194b4" d="m1687 323 3 1-1 7-2 1z"/><path fill="#eaedf2" d="m1725 318 12 1v3l-12-3z"/><path fill="#741937" d="m1748 276 2 1 1 6h3v2l-4 1z"/><path fill="#9c0c20" d="m1739 235 4 2v3l-6 1z"/><path fill="#9e081c" d="m1770 233 2 1v8l-3-1v-7z"/><path fill="#624064" d="m1833 214 1 3q-2 5-7 6l2-5-2-1h2l3-1z"/><path fill="#18346b" d="M1718 220h2l3 4-1 3-1-2h-2l-2 3-1-4h2z"/><path fill="#8396b6" d="M1017 470h3v4l-1 3-1 4h-2v-3h2v-6l-2-1z"/><path fill="#daabb2" d="M1763 200h1v7h-7l4-1v-2z"/><path fill="#425d8d" d="m1784 175 2 1-2 4-6 2v-2z"/><path fill="#e8ecf1" d="M1708 169h2l-1 7h-3v-5h2z"/><path fill="#c9d1de" d="m1427 417 2 1-4 3-2 1-2 1-2-1 3-1v-2z"/><path fill="#e0b8bd" d="M1770 253h1l-1 11-2 1v-7h2z"/><path fill="#d1d8e3" d="M1727 250h2v4h2v3h2v2l-5-2z"/><path fill="#d6cfd8" d="m1798 241 9 1-3 2v2h-3z"/><path fill="#ccd4e0" d="m1826 235 2 1-5 5h-3q3-6 6-6"/><path fill="#b74b5a" d="m1743 234-2 1-3 4h-2v-2l-2-1q4-2 9-2"/><path fill="#c1cbda" d="M1717 230h2v5h2v4h-3z"/><path fill="#a01c2f" d="M1814 216h8v1h-2l-3 1-1 2-4-1z"/><path fill="#d1d8e3" d="m1713 163 4 1h-2v2h-2v3h-3v-3h2z"/><path fill="#f9fafb" d="m1742 151 9 1-1 3-8-2z"/><path fill="#eef1f5" d="m1714 444 2 1-3 3-2 1-2 1-3-1h2v-2z"/><path fill="#c3ccdb" d="M1641 341v2l-6 3-2-1q3-4 8-4"/><path fill="#a2b0c7" d="m1714 327 3 1h-2v3h-2l-1 4v-7z"/><path fill="#1d3f79" d="m1312 320 2 1-2 4-1 3-3 3z"/><path fill="#d8cbd3" d="m1732 189 3 3-1 4-4-1 2-1-2-3h2z"/><path fill="#0b2f6d" d="m1776 188 1 3-3 3-2-4z"/><path fill="#b4bfd2" d="m1760 287 2 1-3 4h-5l4-2v-2z"/></g></svg>